<?xml version="1.0" encoding="utf-8"?>
<!-- Generator: Adobe Illustrator 16.0.0, SVG Export Plug-In . SVG Version: 6.00 Build 0)  -->
<!DOCTYPE svg PUBLIC "-//W3C//DTD SVG 1.1//EN" "http://www.w3.org/Graphics/SVG/1.1/DTD/svg11.dtd">
<svg version="1.1" xmlns="http://www.w3.org/2000/svg" xmlns:xlink="http://www.w3.org/1999/xlink" x="0px" y="0px"
	 width="150.359px" height="152px" viewBox="0 0 150.359 152" enable-background="new 0 0 150.359 152" xml:space="preserve">
<g id="Calque_1_-_copie">
	<g id="Nouveau_symbole_1_">
	</g>
	<g id="Nouveau_symbole">
	</g>
	<g>
		<path fill="none" stroke="#CB432D" stroke-width="2" stroke-miterlimit="10" d="M58.795,15.1
			c5.939-1.658,12.201-2.545,18.67-2.545c38.23,0,69.223,30.99,69.223,69.223c0,38.23-30.992,69.223-69.223,69.223
			c-6.383,0-12.564-0.863-18.434-2.48"/>
		<line fill="none" stroke="#CB432D" stroke-width="2" stroke-miterlimit="10" x1="56.123" y1="33.885" x2="37.416" y2="33.885"/>
		<line fill="none" stroke="#CB432D" stroke-width="2" stroke-miterlimit="10" x1="56.123" y1="52.594" x2="24.053" y2="52.594"/>
		<line fill="none" stroke="#CB432D" stroke-width="2" stroke-miterlimit="10" x1="56.123" y1="71.301" x2="10.689" y2="71.301"/>
		<line fill="none" stroke="#CB432D" stroke-width="2" stroke-miterlimit="10" x1="56.123" y1="90.01" x2="0" y2="90.01"/>
		<line fill="none" stroke="#CB432D" stroke-width="2" stroke-miterlimit="10" x1="56.123" y1="108.717" x2="16.035" y2="108.717"/>
		<line fill="none" stroke="#CB432D" stroke-width="2" stroke-miterlimit="10" x1="56.123" y1="127.426" x2="32.07" y2="127.426"/>
		<line fill="none" stroke="#CB432D" stroke-width="2" stroke-miterlimit="10" x1="126.168" y1="32.586" x2="135.205" y2="23.969"/>
		
			<rect x="133.514" y="13.022" transform="matrix(0.707 0.7072 -0.7072 0.707 54.7169 -93.2519)" fill="none" stroke="#CB432D" stroke-width="2" stroke-miterlimit="10" width="12.785" height="12.783"/>
		<g>
			<path fill="none" stroke="#CB432D" stroke-width="2" stroke-miterlimit="10" d="M109.712,53.765
				c2.651-1.964,3.244-1.38,1.315,1.298L84.57,91.816c-1.929,2.678-5.413,2.958-7.744,0.622l-3.977-3.984
				c-2.331-2.336-2.068-5.854,0.583-7.818L109.712,53.765z"/>
		</g>
		<line fill="none" stroke="#CB432D" stroke-width="2" stroke-miterlimit="10" x1="77.465" y1="12.555" x2="77.465" y2="1"/>
		<line fill="none" stroke="#CB432D" stroke-width="2" stroke-miterlimit="10" x1="64.945" y1="1" x2="89.688" y2="1"/>
	</g>
</g>
<g id="Calque_9" display="none">
</g>
<g id="Calque_1" display="none">
</g>
<g id="home_bleu" display="none">
	<g id="Nouveau_symbole_1_1_" display="inline">
	</g>
</g>
<g id="home_rouge">
	<g id="Nouveau_symbole_1">
	</g>
</g>
<g id="home_classique" display="none">
	<g id="Nouveau_symbole_2" display="inline">
	</g>
</g>
<g id="home3" display="none">
</g>
</svg>
