<?xml version="1.0" encoding="utf-8"?>
<!-- Generator: Adobe Illustrator 16.0.0, SVG Export Plug-In . SVG Version: 6.00 Build 0)  -->
<!DOCTYPE svg PUBLIC "-//W3C//DTD SVG 1.1//EN" "http://www.w3.org/Graphics/SVG/1.1/DTD/svg11.dtd">
<svg version="1.1" xmlns="http://www.w3.org/2000/svg" xmlns:xlink="http://www.w3.org/1999/xlink" x="0px" y="0px"
	 width="80.852px" height="82px" viewBox="0 0 80.852 82" enable-background="new 0 0 80.852 82" xml:space="preserve">
<g id="Calque_1_-_copie">
	<g id="Nouveau_symbole_1_">
	</g>
	<g id="Nouveau_symbole">
	</g>
	<g>
		<path fill="none" stroke="#CB432D" stroke-width="2" stroke-miterlimit="10" d="M31.357,8.52c3.168-0.885,6.507-1.357,9.957-1.357
			c20.39,0,36.919,16.528,36.919,36.919C78.233,64.471,61.704,81,41.314,81c-3.404,0-6.701-0.461-9.831-1.322"/>
		<line fill="none" stroke="#CB432D" stroke-width="2" stroke-miterlimit="10" x1="29.933" y1="18.539" x2="19.955" y2="18.539"/>
		<line fill="none" stroke="#CB432D" stroke-width="2" stroke-miterlimit="10" x1="29.933" y1="28.517" x2="12.828" y2="28.517"/>
		<line fill="none" stroke="#CB432D" stroke-width="2" stroke-miterlimit="10" x1="29.933" y1="38.494" x2="5.701" y2="38.494"/>
		<line fill="none" stroke="#CB432D" stroke-width="2" stroke-miterlimit="10" x1="29.933" y1="48.472" x2="0" y2="48.472"/>
		<line fill="none" stroke="#CB432D" stroke-width="2" stroke-miterlimit="10" x1="29.933" y1="58.449" x2="8.552" y2="58.449"/>
		<line fill="none" stroke="#CB432D" stroke-width="2" stroke-miterlimit="10" x1="29.933" y1="68.428" x2="17.104" y2="68.428"/>
		<line fill="none" stroke="#CB432D" stroke-width="2" stroke-miterlimit="10" x1="67.289" y1="17.846" x2="72.109" y2="13.25"/>
		
			<rect x="71.208" y="7.411" transform="matrix(0.7071 0.7071 -0.7071 0.7071 29.506 -49.5931)" fill="none" stroke="#CB432D" stroke-width="2" stroke-miterlimit="10" width="6.818" height="6.818"/>
		<g>
			<path fill="none" stroke="#CB432D" stroke-width="2" stroke-miterlimit="10" d="M56.263,30.808
				c2.651-1.964,3.244-1.38,1.315,1.298L46.74,47.162c-1.929,2.679-5,3.373-6.826,1.543c-1.827-1.83-1.151-4.936,1.5-6.899
				L56.263,30.808z"/>
		</g>
		<line fill="none" stroke="#CB432D" stroke-width="2" stroke-miterlimit="10" x1="41.314" y1="7.162" x2="41.314" y2="1"/>
		<line fill="none" stroke="#CB432D" stroke-width="2" stroke-miterlimit="10" x1="34.638" y1="1" x2="47.833" y2="1"/>
	</g>
</g>
<g id="Calque_9" display="none">
</g>
<g id="Calque_1" display="none">
</g>
<g id="home_bleu" display="none">
	<g id="Nouveau_symbole_1_1_" display="inline">
	</g>
</g>
<g id="home_rouge">
	<g id="Nouveau_symbole_1">
	</g>
</g>
<g id="home_classique" display="none">
	<g id="Nouveau_symbole_2" display="inline">
	</g>
</g>
<g id="home3" display="none">
</g>
</svg>
