<?xml version="1.0" encoding="utf-8"?>
<!-- Generator: Adobe Illustrator 16.0.0, SVG Export Plug-In . SVG Version: 6.00 Build 0)  -->
<!DOCTYPE svg PUBLIC "-//W3C//DTD SVG 1.1//EN" "http://www.w3.org/Graphics/SVG/1.1/DTD/svg11.dtd">
<svg version="1.1" xmlns="http://www.w3.org/2000/svg" xmlns:xlink="http://www.w3.org/1999/xlink" x="0px" y="0px"
	 width="190.533px" height="152px" viewBox="0 0 190.533 152" enable-background="new 0 0 190.533 152" xml:space="preserve">
<g id="Calque_1_-_copie">
	<g id="Nouveau_symbole_1_">
	</g>
	<g id="Nouveau_symbole">
	</g>
	<g>
		<path fill-rule="evenodd" clip-rule="evenodd" fill="none" stroke="#CB432D" stroke-width="2" stroke-miterlimit="10" d="
			M182.162,1H9.203C5.098,1,1,4.27,1,8.369v109.854c0,3.271,4.098,4.914,8.203,4.914h172.959c4.096,0,7.371-1.643,7.371-4.914V8.369
			C189.533,4.27,186.258,1,182.162,1L182.162,1z"/>
		<polygon fill-rule="evenodd" clip-rule="evenodd" fill="none" stroke="#CB432D" stroke-width="2" stroke-miterlimit="10" points="
			178.068,103.451 178.068,103.451 13.302,103.451 13.302,13.277 178.068,13.277 		"/>
		<path fill-rule="evenodd" clip-rule="evenodd" fill="none" stroke="#CB432D" stroke-width="2" stroke-miterlimit="10" d="
			M123.141,151c2.459,0,0-2.451-3.278-4.908l0,0c-3.272-1.631-3.272-6.547-3.272-6.547l-1.639-9.035H76.414l-1.632,9.035
			c0,0,0,4.086-3.279,6.547c-3.292,2.457-5.745,4.908-3.292,4.908H123.141z"/>
		<path fill-rule="evenodd" clip-rule="evenodd" fill="#CB432D" d="M99.043,113.715c0,2.057-1.668,3.725-3.729,3.725
			s-3.728-1.668-3.728-3.725c0-2.061,1.667-3.73,3.728-3.73S99.043,111.654,99.043,113.715z"/>
		<path fill-rule="evenodd" clip-rule="evenodd" fill="none" stroke="#CB432D" stroke-width="2" stroke-miterlimit="10" d="
			M24.055,86.615V72.324h62.42v14.291H24.055z"/>
		<path fill-rule="evenodd" clip-rule="evenodd" fill="none" stroke="#CB432D" stroke-width="2" stroke-miterlimit="10" d="
			M24.055,51.799h62.42v14.436h-62.42V51.799z"/>
		<path fill-rule="evenodd" clip-rule="evenodd" fill="none" stroke="#CB432D" stroke-width="2" stroke-miterlimit="10" d="
			M24.055,31.418h62.42v14.291h-62.42V31.418z"/>
		<rect x="31.684" y="76.15" fill-rule="evenodd" clip-rule="evenodd" fill="#CB432D" width="6" height="6"/>
		<rect x="73.684" y="56.15" fill-rule="evenodd" clip-rule="evenodd" fill="#CB432D" width="6" height="6"/>
		<rect x="49.684" y="35.15" fill-rule="evenodd" clip-rule="evenodd" fill="#CB432D" width="6" height="6"/>
		<polyline fill="none" stroke="#CB432D" stroke-width="2" stroke-miterlimit="10" points="119.994,33.539 100.77,33.539 
			100.77,86.615 159.703,86.615 159.703,33.539 143.471,33.539 		"/>
		<line fill="none" stroke="#CB432D" stroke-width="2" stroke-miterlimit="10" x1="100.77" y1="45.016" x2="159.703" y2="45.016"/>
		<path fill="none" stroke="#CB432D" stroke-width="2" stroke-miterlimit="10" d="M139.172,28.922c2.551,0,4.619,2.066,4.619,4.617
			s-2.068,4.617-4.619,4.617"/>
		<path fill="none" stroke="#CB432D" stroke-width="2" stroke-miterlimit="10" d="M133.104,28.922c2.551,0,4.618,2.066,4.618,4.617
			s-2.067,4.617-4.618,4.617"/>
		<path fill="none" stroke="#CB432D" stroke-width="2" stroke-miterlimit="10" d="M127.096,28.922c2.551,0,4.619,2.066,4.619,4.617
			s-2.068,4.617-4.619,4.617"/>
		<path fill="none" stroke="#CB432D" stroke-width="2" stroke-miterlimit="10" d="M116.082,33.539c0-2.551,2.066-4.617,4.617-4.617
			s4.618,2.066,4.618,4.617s-2.067,4.617-4.618,4.617"/>
		<path fill="#CB432D" d="M128.174,60.119h-1.673v-6.303c-0.611,0.57-1.331,0.994-2.161,1.268v-1.518
			c0.437-0.145,0.911-0.414,1.423-0.813c0.512-0.4,0.863-0.865,1.054-1.396h1.357V60.119z"/>
		<path fill="#CB432D" d="M136.322,58.566v1.553h-5.863c0.064-0.588,0.254-1.143,0.572-1.67c0.316-0.525,0.944-1.223,1.881-2.092
			c0.754-0.703,1.217-1.178,1.387-1.428c0.23-0.346,0.346-0.688,0.346-1.025c0-0.373-0.101-0.66-0.301-0.859
			c-0.201-0.201-0.478-0.301-0.83-0.301c-0.35,0-0.627,0.105-0.834,0.314c-0.206,0.211-0.325,0.561-0.357,1.049l-1.666-0.166
			c0.099-0.922,0.41-1.582,0.934-1.982c0.524-0.402,1.18-0.602,1.965-0.602c0.861,0,1.538,0.232,2.03,0.695
			c0.491,0.465,0.737,1.043,0.737,1.732c0,0.393-0.07,0.768-0.211,1.123s-0.363,0.727-0.67,1.115
			c-0.202,0.258-0.566,0.629-1.095,1.113s-0.862,0.807-1.003,0.965s-0.256,0.314-0.342,0.465H136.322z"/>
		<path fill="#CB432D" d="M116.334,69.443h1.541v0.863c0.552-0.67,1.209-1.006,1.971-1.006c0.404,0,0.756,0.084,1.054,0.25
			s0.542,0.418,0.731,0.756c0.278-0.338,0.578-0.59,0.899-0.756s0.665-0.25,1.03-0.25c0.464,0,0.857,0.094,1.178,0.283
			c0.322,0.188,0.563,0.465,0.721,0.83c0.115,0.27,0.173,0.707,0.173,1.309v4.043h-1.673v-3.613c0-0.627-0.058-1.031-0.173-1.215
			c-0.155-0.238-0.393-0.357-0.714-0.357c-0.234,0-0.455,0.072-0.661,0.215s-0.354,0.352-0.446,0.629
			c-0.092,0.275-0.137,0.711-0.137,1.307v3.035h-1.673v-3.465c0-0.615-0.03-1.012-0.089-1.189c-0.061-0.18-0.152-0.313-0.277-0.4
			c-0.125-0.086-0.295-0.131-0.509-0.131c-0.259,0-0.49,0.07-0.696,0.209c-0.207,0.139-0.354,0.34-0.443,0.602
			c-0.09,0.262-0.135,0.695-0.135,1.303v3.072h-1.672V69.443z"/>
		<path fill="#CB432D" d="M128.549,71.373l-1.518-0.275c0.17-0.609,0.464-1.063,0.881-1.355c0.416-0.295,1.035-0.441,1.857-0.441
			c0.746,0,1.301,0.088,1.666,0.266c0.365,0.176,0.622,0.4,0.771,0.672c0.148,0.271,0.223,0.771,0.223,1.498l-0.018,1.951
			c0,0.557,0.026,0.965,0.08,1.23c0.054,0.264,0.154,0.545,0.301,0.848h-1.654c-0.045-0.111-0.098-0.275-0.161-0.494
			c-0.028-0.1-0.048-0.164-0.06-0.197c-0.286,0.279-0.592,0.486-0.917,0.625s-0.673,0.209-1.042,0.209
			c-0.65,0-1.164-0.176-1.539-0.529s-0.563-0.801-0.563-1.34c0-0.357,0.086-0.676,0.256-0.955c0.172-0.279,0.41-0.494,0.718-0.643
			c0.308-0.15,0.751-0.279,1.331-0.391c0.781-0.146,1.323-0.283,1.625-0.41v-0.168c0-0.32-0.08-0.551-0.238-0.688
			s-0.459-0.205-0.898-0.205c-0.299,0-0.53,0.059-0.697,0.176C128.787,70.873,128.652,71.078,128.549,71.373z M130.787,72.73
			c-0.215,0.07-0.554,0.156-1.018,0.256c-0.465,0.098-0.769,0.195-0.912,0.291c-0.218,0.154-0.326,0.352-0.326,0.59
			c0,0.234,0.087,0.436,0.262,0.607c0.174,0.17,0.396,0.256,0.666,0.256c0.302,0,0.59-0.1,0.863-0.299
			c0.203-0.15,0.336-0.336,0.398-0.553c0.045-0.143,0.066-0.416,0.066-0.816V72.73z"/>
		<path fill="#CB432D" d="M135.68,75.766h-1.672v-6.322h1.553v0.898c0.266-0.424,0.506-0.703,0.718-0.838s0.453-0.203,0.724-0.203
			c0.381,0,0.748,0.105,1.101,0.316l-0.518,1.457c-0.282-0.182-0.544-0.273-0.786-0.273c-0.234,0-0.432,0.064-0.596,0.193
			c-0.162,0.129-0.29,0.361-0.383,0.699c-0.094,0.338-0.141,1.045-0.141,2.119V75.766z"/>
		<path fill="#CB432D" d="M138.234,73.961l1.678-0.256c0.072,0.326,0.217,0.572,0.436,0.742c0.218,0.168,0.523,0.252,0.916,0.252
			c0.433,0,0.758-0.078,0.977-0.238c0.146-0.109,0.22-0.26,0.22-0.445c0-0.127-0.04-0.232-0.118-0.316
			c-0.084-0.078-0.271-0.152-0.561-0.219c-1.35-0.299-2.204-0.57-2.565-0.816c-0.5-0.342-0.75-0.816-0.75-1.422
			c0-0.549,0.216-1.01,0.649-1.383c0.432-0.373,1.103-0.559,2.012-0.559c0.865,0,1.508,0.141,1.929,0.422
			c0.421,0.283,0.71,0.699,0.869,1.25l-1.577,0.293c-0.068-0.246-0.195-0.436-0.385-0.566c-0.188-0.131-0.457-0.195-0.807-0.195
			c-0.44,0-0.756,0.061-0.946,0.184c-0.127,0.088-0.19,0.201-0.19,0.34c0,0.119,0.056,0.221,0.166,0.303
			c0.151,0.111,0.672,0.268,1.563,0.471c0.891,0.203,1.513,0.451,1.866,0.744c0.35,0.297,0.523,0.713,0.523,1.244
			c0,0.58-0.242,1.078-0.727,1.494c-0.483,0.416-1.2,0.625-2.148,0.625c-0.861,0-1.543-0.174-2.045-0.523
			S138.389,74.561,138.234,73.961z"/>
	</g>
</g>
<g id="Calque_9" display="none">
</g>
<g id="Calque_1" display="none">
</g>
<g id="home_bleu" display="none">
	<g id="Nouveau_symbole_1_1_" display="inline">
	</g>
</g>
<g id="home_rouge">
	<g id="Nouveau_symbole_1">
	</g>
</g>
<g id="home_classique" display="none">
	<g id="Nouveau_symbole_2" display="inline">
	</g>
</g>
<g id="home3" display="none">
</g>
</svg>
