<?xml version="1.0" encoding="utf-8"?>
<!-- Generator: Adobe Illustrator 16.0.0, SVG Export Plug-In . SVG Version: 6.00 Build 0)  -->
<!DOCTYPE svg PUBLIC "-//W3C//DTD SVG 1.1//EN" "http://www.w3.org/Graphics/SVG/1.1/DTD/svg11.dtd">
<svg version="1.1" xmlns="http://www.w3.org/2000/svg" xmlns:xlink="http://www.w3.org/1999/xlink" x="0px" y="0px"
	 width="102.551px" height="82px" viewBox="0 0 102.551 82" enable-background="new 0 0 102.551 82" xml:space="preserve">
<g id="Calque_1_-_copie">
	<g id="Nouveau_symbole_1_">
	</g>
	<g id="Nouveau_symbole">
	</g>
	<g>
		<path fill-rule="evenodd" clip-rule="evenodd" fill="none" stroke="#CB432D" stroke-width="2" stroke-miterlimit="10" d="M97.62,1
			H5.375C3.186,1,1,2.744,1,4.93v58.589c0,1.745,2.186,2.621,4.375,2.621H97.62c2.184,0,3.931-0.876,3.931-2.621V4.93
			C101.551,2.744,99.804,1,97.62,1L97.62,1z"/>
		<polygon fill-rule="evenodd" clip-rule="evenodd" fill="none" stroke="#CB432D" stroke-width="2" stroke-miterlimit="10" points="
			95.437,55.641 95.437,55.641 7.561,55.641 7.561,7.548 95.437,7.548 		"/>
		<path fill-rule="evenodd" clip-rule="evenodd" fill="none" stroke="#CB432D" stroke-width="2" stroke-miterlimit="10" d="
			M66.142,81c1.312,0,0-1.307-1.748-2.617l0,0c-1.746-0.87-1.746-3.492-1.746-3.492l-0.873-4.818H41.221l-0.87,4.818
			c0,0,0,2.18-1.749,3.492C36.846,79.693,35.537,81,36.846,81H66.142z"/>
		<circle fill-rule="evenodd" clip-rule="evenodd" fill="#CB432D" cx="51.302" cy="61.115" r="1.988"/>
		<path fill-rule="evenodd" clip-rule="evenodd" fill="none" stroke="#CB432D" stroke-width="2" stroke-miterlimit="10" d="
			M13.296,46.662v-7.623h33.291v7.623H13.296z"/>
		<path fill-rule="evenodd" clip-rule="evenodd" fill="none" stroke="#CB432D" stroke-width="2" stroke-miterlimit="10" d="
			M13.296,28.093h33.291v7.699H13.296V28.093z"/>
		<path fill-rule="evenodd" clip-rule="evenodd" fill="none" stroke="#CB432D" stroke-width="2" stroke-miterlimit="10" d="
			M13.296,17.223h33.291v7.622H13.296V17.223z"/>
		<rect x="17.692" y="41.15" fill-rule="evenodd" clip-rule="evenodd" fill="#CB432D" width="3" height="3"/>
		<rect x="39.692" y="30.15" fill-rule="evenodd" clip-rule="evenodd" fill="#CB432D" width="3" height="3"/>
		<rect x="26.692" y="19.15" fill-rule="evenodd" clip-rule="evenodd" fill="#CB432D" width="3" height="3"/>
		<polyline fill="none" stroke="#CB432D" stroke-width="2" stroke-miterlimit="10" points="64.464,18.354 54.21,18.354 
			54.21,46.662 85.642,46.662 85.642,18.354 76.984,18.354 		"/>
		<line fill="none" stroke="#CB432D" stroke-width="2" stroke-miterlimit="10" x1="54.21" y1="24.475" x2="85.642" y2="24.475"/>
		<path fill="none" stroke="#CB432D" stroke-width="2" stroke-miterlimit="10" d="M74.691,15.892c1.36,0,2.464,1.103,2.464,2.463
			s-1.104,2.462-2.464,2.462"/>
		<path fill="none" stroke="#CB432D" stroke-width="2" stroke-miterlimit="10" d="M71.455,15.892c1.36,0,2.463,1.103,2.463,2.463
			s-1.103,2.462-2.463,2.462"/>
		<path fill="none" stroke="#CB432D" stroke-width="2" stroke-miterlimit="10" d="M68.251,15.892c1.36,0,2.463,1.103,2.463,2.463
			s-1.103,2.462-2.463,2.462"/>
		<path fill="none" stroke="#CB432D" stroke-width="2" stroke-miterlimit="10" d="M62.377,18.354c0-1.36,1.103-2.463,2.462-2.463
			c1.361,0,2.464,1.103,2.464,2.463s-1.103,2.462-2.464,2.462"/>
		<path fill="#CB432D" d="M68.826,32.53h-0.893v-3.361c-0.326,0.304-0.71,0.53-1.152,0.676v-0.81
			c0.232-0.076,0.485-0.221,0.759-0.434s0.461-0.461,0.563-0.744h0.724V32.53z"/>
		<path fill="#CB432D" d="M73.172,31.702v0.828h-3.127c0.034-0.313,0.136-0.609,0.305-0.891c0.169-0.28,0.504-0.652,1.003-1.116
			c0.402-0.375,0.649-0.627,0.74-0.761c0.123-0.185,0.184-0.366,0.184-0.547c0-0.199-0.053-0.353-0.16-0.458
			c-0.107-0.107-0.254-0.161-0.442-0.161c-0.187,0-0.335,0.057-0.444,0.168c-0.11,0.112-0.174,0.299-0.191,0.56l-0.889-0.089
			c0.053-0.491,0.219-0.844,0.498-1.058c0.28-0.214,0.629-0.32,1.049-0.32c0.459,0,0.82,0.124,1.082,0.371
			c0.262,0.248,0.394,0.556,0.394,0.924c0,0.209-0.038,0.409-0.112,0.599c-0.075,0.189-0.194,0.388-0.357,0.595
			c-0.107,0.138-0.303,0.336-0.584,0.594c-0.281,0.259-0.46,0.431-0.535,0.515c-0.074,0.085-0.137,0.168-0.182,0.248H73.172z"/>
		<path fill="#CB432D" d="M62.511,37.503h0.822v0.461c0.295-0.357,0.645-0.536,1.051-0.536c0.216,0,0.403,0.044,0.563,0.133
			c0.158,0.088,0.289,0.223,0.391,0.403c0.148-0.181,0.308-0.315,0.479-0.403c0.172-0.089,0.355-0.133,0.55-0.133
			c0.247,0,0.458,0.049,0.628,0.15c0.172,0.1,0.301,0.248,0.385,0.443c0.062,0.143,0.092,0.377,0.092,0.697v2.156h-0.892v-1.927
			c0-0.335-0.03-0.55-0.093-0.648c-0.082-0.127-0.209-0.19-0.381-0.19c-0.125,0-0.242,0.039-0.352,0.115
			c-0.11,0.075-0.189,0.188-0.238,0.335c-0.049,0.146-0.073,0.379-0.073,0.696v1.619H64.55v-1.848c0-0.328-0.017-0.54-0.048-0.635
			c-0.032-0.096-0.081-0.166-0.147-0.213c-0.067-0.047-0.158-0.07-0.271-0.07c-0.139,0-0.262,0.037-0.371,0.111
			c-0.111,0.074-0.189,0.182-0.237,0.321s-0.071,0.37-0.071,0.694v1.639h-0.893V37.503z"/>
		<path fill="#CB432D" d="M69.026,38.532l-0.81-0.146c0.091-0.325,0.247-0.567,0.47-0.724c0.222-0.156,0.552-0.234,0.99-0.234
			c0.398,0,0.693,0.047,0.889,0.141s0.332,0.214,0.412,0.359c0.078,0.145,0.118,0.411,0.118,0.799l-0.009,1.04
			c0,0.297,0.014,0.515,0.042,0.656c0.028,0.141,0.083,0.291,0.161,0.452h-0.883c-0.023-0.06-0.053-0.146-0.086-0.264
			c-0.016-0.053-0.025-0.088-0.031-0.105c-0.153,0.149-0.316,0.26-0.49,0.334c-0.173,0.074-0.358,0.111-0.555,0.111
			c-0.348,0-0.621-0.094-0.821-0.282s-0.3-0.427-0.3-0.715c0-0.19,0.046-0.36,0.137-0.509c0.092-0.149,0.219-0.264,0.383-0.344
			s0.4-0.148,0.709-0.208c0.417-0.078,0.706-0.151,0.867-0.219v-0.089c0-0.172-0.043-0.294-0.127-0.367
			c-0.084-0.072-0.245-0.109-0.479-0.109c-0.159,0-0.282,0.031-0.372,0.094C69.153,38.266,69.081,38.375,69.026,38.532z
			 M70.22,39.256c-0.115,0.038-0.295,0.084-0.543,0.137s-0.41,0.104-0.486,0.155c-0.116,0.083-0.174,0.188-0.174,0.314
			c0,0.125,0.047,0.232,0.14,0.324c0.093,0.091,0.212,0.137,0.354,0.137c0.162,0,0.315-0.054,0.461-0.159
			c0.108-0.08,0.18-0.18,0.213-0.295c0.023-0.076,0.035-0.223,0.035-0.436V39.256z"/>
		<path fill="#CB432D" d="M72.829,40.875h-0.892v-3.372h0.828v0.479c0.142-0.227,0.27-0.375,0.383-0.447
			c0.112-0.071,0.241-0.107,0.386-0.107c0.203,0,0.398,0.056,0.587,0.168l-0.276,0.777c-0.15-0.097-0.289-0.146-0.419-0.146
			c-0.125,0-0.229,0.035-0.317,0.104c-0.087,0.068-0.154,0.193-0.204,0.373s-0.075,0.558-0.075,1.131V40.875z"/>
		<path fill="#CB432D" d="M74.191,39.912l0.896-0.136c0.038,0.174,0.115,0.305,0.231,0.396c0.116,0.09,0.279,0.135,0.489,0.135
			c0.23,0,0.404-0.042,0.521-0.127c0.078-0.059,0.117-0.139,0.117-0.238c0-0.067-0.021-0.123-0.063-0.168
			c-0.045-0.042-0.145-0.082-0.299-0.117c-0.72-0.159-1.176-0.305-1.368-0.436c-0.267-0.182-0.399-0.436-0.399-0.758
			c0-0.293,0.115-0.539,0.346-0.738c0.23-0.198,0.588-0.297,1.073-0.297c0.462,0,0.804,0.074,1.028,0.225s0.379,0.373,0.464,0.666
			l-0.841,0.156c-0.037-0.131-0.104-0.232-0.205-0.302c-0.102-0.069-0.244-0.104-0.431-0.104c-0.235,0-0.403,0.033-0.505,0.099
			c-0.067,0.047-0.102,0.106-0.102,0.181c0,0.064,0.029,0.118,0.089,0.162c0.081,0.059,0.358,0.143,0.833,0.251
			c0.476,0.108,0.808,0.24,0.996,0.396c0.187,0.158,0.279,0.38,0.279,0.663c0,0.311-0.129,0.576-0.388,0.797
			c-0.258,0.223-0.64,0.334-1.146,0.334c-0.46,0-0.823-0.093-1.091-0.279C74.448,40.485,74.274,40.232,74.191,39.912z"/>
	</g>
</g>
<g id="Calque_9" display="none">
</g>
<g id="Calque_1" display="none">
</g>
<g id="home_bleu" display="none">
	<g id="Nouveau_symbole_1_1_" display="inline">
	</g>
</g>
<g id="home_rouge">
	<g id="Nouveau_symbole_1">
	</g>
</g>
<g id="home_classique" display="none">
	<g id="Nouveau_symbole_2" display="inline">
	</g>
</g>
<g id="home3" display="none">
</g>
</svg>
