<?xml version="1.0" encoding="utf-8"?>
<!-- Generator: Adobe Illustrator 16.0.0, SVG Export Plug-In . SVG Version: 6.00 Build 0)  -->
<!DOCTYPE svg PUBLIC "-//W3C//DTD SVG 1.1//EN" "http://www.w3.org/Graphics/SVG/1.1/DTD/svg11.dtd">
<svg version="1.1" xmlns="http://www.w3.org/2000/svg" xmlns:xlink="http://www.w3.org/1999/xlink" x="0px" y="0px"
	 width="180.216px" height="114.906px" viewBox="0 0 180.216 114.906" enable-background="new 0 0 180.216 114.906"
	 xml:space="preserve">
<g id="Calque_1_-_copie">
	<g id="Nouveau_symbole_1_">
	</g>
	<g id="Nouveau_symbole">
	</g>
	<g>
		<g>
			<line fill="none" stroke="#CB432D" stroke-width="2" stroke-miterlimit="10" x1="47.147" y1="38.953" x2="128.147" y2="38.953"/>
			<g>
				<path fill="#CB432D" d="M76.429,79.693c0,1.311-1.063,2.373-2.374,2.373c-1.309,0-2.37-1.063-2.37-2.373
					c0-1.307,1.062-2.373,2.37-2.373C75.366,77.32,76.429,78.387,76.429,79.693z"/>
				
					<line fill="none" stroke="#CB432D" stroke-width="2" stroke-miterlimit="10" x1="51.147" y1="80.953" x2="124.147" y2="80.953"/>
				<rect x="47.147" y="28.953" fill="none" stroke="#CB432D" stroke-width="2" stroke-miterlimit="10" width="81" height="58"/>
				<path fill-rule="evenodd" clip-rule="evenodd" fill="none" stroke="#CB432D" stroke-width="2" stroke-miterlimit="10" d="
					M101.302,56.838c0,0.252,0,0.502,0,0.754c-0.018,0.074-0.043,0.146-0.053,0.221c-0.162,1.307-0.686,2.438-1.662,3.328
					c-0.67,0.611-1.348,1.223-2.063,1.779c-3.928,3.043-8.336,5.154-13.045,6.682c-1.111,0.357-2.239,0.471-3.376,0.18
					c-2.224-0.561-3.751-1.891-4.291-4.166c-0.499-2.1-0.706-4.234-0.778-6.391c-0.007-0.191-0.037-0.383-0.057-0.572
					c0-0.738,0-1.482,0-2.223c0.016-0.119,0.041-0.246,0.045-0.367c0.059-2.102,0.261-4.189,0.566-6.266
					c0.352-2.389,1.92-4.17,4.26-4.754c0.342-0.086,0.688-0.145,1.032-0.211c0.335,0,0.672,0,1.009,0
					c0.311,0.059,0.625,0.105,0.932,0.188c5.889,1.533,11.027,4.479,15.67,8.35c0.875,0.729,1.419,1.691,1.674,2.807
					C101.216,56.395,101.257,56.617,101.302,56.838z M92.772,55.4c-3.418-0.549-6.818-1.092-10.177-1.629
					c1.042,3.164,2.086,6.332,3.125,9.486C88.052,60.66,90.395,58.047,92.772,55.4z"/>
			</g>
		</g>
		<path fill="none" stroke="#CB432D" stroke-width="2" stroke-miterlimit="10" d="M5.324,113.906L5.324,113.906h169.172
			c2.75,0,4.72-1.973,4.72-4.326V5.326c0-2.359-1.97-4.326-4.72-4.326H5.324C2.97,1,1,2.967,1,5.326V109.58
			C1,111.934,2.97,113.906,5.324,113.906L5.324,113.906z"/>
		<path fill-rule="evenodd" clip-rule="evenodd" fill="#CB432D" d="M172.566,62.24L172.566,62.24c-1.919,0-3.515-1.438-3.515-3.512
			c0-1.92,1.596-3.355,3.515-3.355c1.917,0,3.516,1.436,3.516,3.355C176.082,60.803,174.483,62.24,172.566,62.24L172.566,62.24z"/>
		<rect x="12.147" y="9.953" fill="none" stroke="#CB432D" stroke-width="2" stroke-miterlimit="10" width="152" height="95"/>
	</g>
</g>
<g id="Calque_9" display="none">
</g>
<g id="Calque_1" display="none">
	<g display="inline">
		<g>
			<g>
				<rect x="-179.179" y="13.466" fill="none" width="212.652" height="109.011"/>
				<text transform="matrix(1 0 0 1 -136.2119 24.8662)"><tspan x="0" y="0" fill="#222223" font-family="'OpenSans'" font-size="15">Programmer vos </tspan><tspan x="-32.625" y="23" fill="#222223" font-family="'OpenSans'" font-size="15">enregistrement sur votre </tspan><tspan x="-12.835" y="46" fill="#222223" font-family="'OpenSans'" font-size="15">callendrier, même a </tspan><tspan x="29.092" y="69" fill="#222223" font-family="'OpenSans'" font-size="15">distance.</tspan></text>
			</g>
		</g>
	</g>
	<g display="inline">
		<g>
			<rect x="88.147" y="13.964" fill="none" width="221" height="112.014"/>
			<text transform="matrix(1 0 0 1 90.1514 25.3643)"><tspan x="0" y="0" fill="#222223" font-family="'OpenSans'" font-size="15">Le player est compatible sur </tspan><tspan x="23.254" y="23" fill="#222223" font-family="'OpenSans'" font-size="15">ordinateur, tablette et </tspan><tspan x="14.607" y="46" fill="#222223" font-family="'OpenSans'" font-size="15">téléphone pour toujours </tspan><tspan x="48.017" y="69" fill="#222223" font-family="'OpenSans'" font-size="15">plus de confort.</tspan></text>
		</g>
	</g>
</g>
<g id="home_bleu" display="none">
	<g id="Nouveau_symbole_1_1_" display="inline">
	</g>
</g>
<g id="home_rouge">
	<g id="Nouveau_symbole_1">
	</g>
</g>
<g id="home_classique" display="none">
	<g id="Nouveau_symbole_2" display="inline">
	</g>
</g>
<g id="home3" display="none">
</g>
</svg>
