<?xml version="1.0" encoding="utf-8"?>
<!-- Generator: Adobe Illustrator 16.0.0, SVG Export Plug-In . SVG Version: 6.00 Build 0)  -->
<!DOCTYPE svg PUBLIC "-//W3C//DTD SVG 1.1//EN" "http://www.w3.org/Graphics/SVG/1.1/DTD/svg11.dtd">
<svg version="1.1" xmlns="http://www.w3.org/2000/svg" xmlns:xlink="http://www.w3.org/1999/xlink" x="0px" y="0px"
	 width="128.275px" height="82px" viewBox="0 0 128.275 82" enable-background="new 0 0 128.275 82" xml:space="preserve">
<g id="Calque_1_-_copie">
	<g id="Nouveau_symbole_1_">
	</g>
	<g id="Nouveau_symbole">
	</g>
	<g>
		<g>
			<line fill="none" stroke="#CB432D" stroke-width="2" stroke-miterlimit="10" x1="34.178" y1="27.5" x2="91.178" y2="27.5"/>
			<g>
				<path fill="#CB432D" d="M54.445,56.758c0,0.929-0.752,1.682-1.682,1.682c-0.928,0-1.68-0.753-1.68-1.682
					c0-0.926,0.752-1.681,1.68-1.681C53.693,55.077,54.445,55.832,54.445,56.758z"/>
				<line fill="none" stroke="#CB432D" stroke-width="2" stroke-miterlimit="10" x1="36.178" y1="57.5" x2="88.178" y2="57.5"/>
				<rect x="34.178" y="20.5" fill="none" stroke="#CB432D" stroke-width="2" stroke-miterlimit="10" width="57" height="41"/>
				<path fill-rule="evenodd" clip-rule="evenodd" fill="none" stroke="#CB432D" stroke-width="2" stroke-miterlimit="10" d="
					M72.069,40.564c0,0.178,0,0.355,0,0.533c-0.013,0.053-0.03,0.104-0.037,0.157c-0.114,0.926-0.485,1.727-1.178,2.358
					c-0.475,0.433-0.955,0.865-1.462,1.26c-2.782,2.156-5.906,3.652-9.242,4.734c-0.787,0.254-1.587,0.334-2.393,0.128
					c-1.575-0.397-2.657-1.34-3.04-2.952c-0.354-1.488-0.501-3-0.552-4.528c-0.005-0.136-0.026-0.271-0.04-0.405
					c0-0.523,0-1.051,0-1.575c0.011-0.084,0.029-0.174,0.032-0.26c0.041-1.489,0.185-2.969,0.4-4.439
					c0.25-1.692,1.361-2.955,3.02-3.368c0.242-0.062,0.486-0.103,0.73-0.15c0.238,0,0.477,0,0.715,0
					c0.221,0.042,0.443,0.075,0.66,0.133c4.173,1.087,7.813,3.174,11.104,5.917c0.619,0.516,1.005,1.198,1.186,1.988
					C72.009,40.25,72.037,40.408,72.069,40.564z M66.026,39.545c-2.422-0.389-4.831-0.773-7.211-1.153
					c0.738,2.241,1.478,4.486,2.214,6.722C62.682,43.272,64.342,41.421,66.026,39.545z"/>
			</g>
		</g>
		<path fill="none" stroke="#CB432D" stroke-width="2" stroke-miterlimit="10" d="M4.064,81L4.064,81h119.867
			c1.948,0,3.344-1.397,3.344-3.065V4.065c0-1.672-1.396-3.065-3.344-3.065H4.064C2.396,1,1,2.394,1,4.065v73.869
			C1,79.603,2.396,81,4.064,81L4.064,81z"/>
		<path fill-rule="evenodd" clip-rule="evenodd" fill="#CB432D" d="M122.564,44.392L122.564,44.392c-1.359,0-2.49-1.019-2.49-2.488
			c0-1.36,1.131-2.377,2.49-2.377c1.358,0,2.49,1.017,2.49,2.377C125.055,43.373,123.923,44.392,122.564,44.392L122.564,44.392z"/>
		<rect x="9.178" y="7.5" fill="none" stroke="#CB432D" stroke-width="2" stroke-miterlimit="10" width="107" height="67"/>
	</g>
</g>
<g id="Calque_9" display="none">
</g>
<g id="Calque_1" display="none">
	<g display="inline">
		<g>
			<g>
				<rect x="-205.148" y="-2.987" fill="none" width="212.652" height="109.011"/>
				<text transform="matrix(1 0 0 1 -162.1816 8.4131)"><tspan x="0" y="0" fill="#222223" font-family="'OpenSans'" font-size="15">Programmer vos </tspan><tspan x="-32.625" y="23" fill="#222223" font-family="'OpenSans'" font-size="15">enregistrement sur votre </tspan><tspan x="-12.835" y="46" fill="#222223" font-family="'OpenSans'" font-size="15">callendrier, même a </tspan><tspan x="29.092" y="69" fill="#222223" font-family="'OpenSans'" font-size="15">distance.</tspan></text>
			</g>
		</g>
	</g>
	<g display="inline">
		<g>
			<rect x="62.178" y="-2.489" fill="none" width="221" height="112.014"/>
			<text transform="matrix(1 0 0 1 64.1816 8.9111)"><tspan x="0" y="0" fill="#222223" font-family="'OpenSans'" font-size="15">Le player est compatible sur </tspan><tspan x="23.254" y="23" fill="#222223" font-family="'OpenSans'" font-size="15">ordinateur, tablette et </tspan><tspan x="14.607" y="46" fill="#222223" font-family="'OpenSans'" font-size="15">téléphone pour toujours </tspan><tspan x="48.017" y="69" fill="#222223" font-family="'OpenSans'" font-size="15">plus de confort.</tspan></text>
		</g>
	</g>
</g>
<g id="home_bleu" display="none">
	<g id="Nouveau_symbole_1_1_" display="inline">
	</g>
</g>
<g id="home_rouge">
	<g id="Nouveau_symbole_1">
	</g>
</g>
<g id="home_classique" display="none">
	<g id="Nouveau_symbole_2" display="inline">
	</g>
</g>
<g id="home3" display="none">
</g>
</svg>
