<?xml version="1.0" encoding="utf-8"?>
<!-- Generator: Adobe Illustrator 16.0.0, SVG Export Plug-In . SVG Version: 6.00 Build 0)  -->
<!DOCTYPE svg PUBLIC "-//W3C//DTD SVG 1.1//EN" "http://www.w3.org/Graphics/SVG/1.1/DTD/svg11.dtd">
<svg version="1.1" xmlns="http://www.w3.org/2000/svg" xmlns:xlink="http://www.w3.org/1999/xlink" x="0px" y="0px" width="84px"
	 height="81.129px" viewBox="0 0 84 81.129" enable-background="new 0 0 84 81.129" xml:space="preserve">
<pattern  x="-2332.5" y="-2760.561" width="120" height="68.121" patternUnits="userSpaceOnUse" id="Nouvelle_nuance_de_motif_1" viewBox="1.947 -68.121 120 68.121" overflow="visible">
	<g>
		<polygon fill="none" points="1.947,-68.121 121.947,-68.121 121.947,0 1.947,0 		"/>
		<g>
			<path fill="#CB432D" d="M24.16-58.876c0,1.074,0.873,1.945,1.947,1.945c1.075,0,1.946-0.871,1.946-1.945
				s-0.871-1.945-1.946-1.945C25.033-60.821,24.16-59.95,24.16-58.876z"/>
			<path fill="#CB432D" d="M18.322-64.714c0,1.074,0.871,1.945,1.946,1.945c1.074,0,1.946-0.871,1.946-1.945
				c0-1.076-0.872-1.947-1.946-1.947C19.193-66.661,18.322-65.79,18.322-64.714z"/>
			<path fill="#CB432D" d="M30-64.714c0,1.074,0.871,1.945,1.946,1.945s1.946-0.871,1.946-1.945c0-1.076-0.871-1.947-1.946-1.947
				S30-65.79,30-64.714z"/>
			<path fill="#CB432D" d="M18.322-53.036c0,1.076,0.871,1.945,1.946,1.945c1.074,0,1.946-0.869,1.946-1.945
				s-0.872-1.945-1.946-1.945C19.193-54.981,18.322-54.112,18.322-53.036z"/>
			<path fill="#CB432D" d="M30-53.036c0,1.076,0.871,1.945,1.946,1.945s1.946-0.869,1.946-1.945s-0.871-1.945-1.946-1.945
				S30-54.112,30-53.036z"/>
			<path fill="#CB432D" d="M35.84-58.876c0,1.074,0.871,1.945,1.945,1.945c1.075,0,1.947-0.871,1.947-1.945
				s-0.872-1.945-1.947-1.945C36.711-60.821,35.84-59.95,35.84-58.876z"/>
			<path fill="#CB432D" d="M41.68-64.714c0,1.074,0.871,1.945,1.945,1.945s1.946-0.871,1.946-1.945c0-1.076-0.872-1.947-1.946-1.947
				S41.68-65.79,41.68-64.714z"/>
			<path fill="#CB432D" d="M41.68-53.036c0,1.076,0.871,1.945,1.945,1.945s1.946-0.869,1.946-1.945s-0.872-1.945-1.946-1.945
				S41.68-54.112,41.68-53.036z"/>
		</g>
		<g>
			<path fill="#CB432D" d="M0-59.363c0,1.076,0.871,1.947,1.946,1.947s1.946-0.871,1.946-1.947c0-1.074-0.871-1.945-1.946-1.945
				S0-60.438,0-59.363z"/>
			<path fill="#CB432D" d="M5.84-65.203c0,1.076,0.871,1.947,1.945,1.947c1.075,0,1.947-0.871,1.947-1.947
				c0-1.074-0.872-1.945-1.947-1.945C6.711-67.148,5.84-66.277,5.84-65.203z"/>
			<path fill="#CB432D" d="M11.68-59.363c0,1.076,0.871,1.947,1.945,1.947s1.946-0.871,1.946-1.947c0-1.074-0.872-1.945-1.946-1.945
				S11.68-60.438,11.68-59.363z"/>
			<path fill="#CB432D" d="M0-47.684c0,1.074,0.871,1.945,1.946,1.945s1.946-0.871,1.946-1.945c0-1.076-0.871-1.947-1.946-1.947
				S0-48.76,0-47.684z"/>
			<path fill="#CB432D" d="M0-36.006c0,1.076,0.871,1.945,1.946,1.945s1.946-0.869,1.946-1.945s-0.871-1.945-1.946-1.945
				S0-37.082,0-36.006z"/>
			<path fill="#CB432D" d="M5.84-53.523c0,1.074,0.871,1.947,1.945,1.947c1.075,0,1.947-0.873,1.947-1.947s-0.872-1.945-1.947-1.945
				C6.711-55.469,5.84-54.598,5.84-53.523z"/>
			<path fill="#CB432D" d="M5.84-41.846c0,1.074,0.871,1.945,1.945,1.945c1.075,0,1.947-0.871,1.947-1.945s-0.872-1.945-1.947-1.945
				C6.711-43.791,5.84-42.92,5.84-41.846z"/>
			<path fill="#CB432D" d="M11.68-47.684c0,1.074,0.871,1.945,1.945,1.945s1.946-0.871,1.946-1.945c0-1.076-0.872-1.947-1.946-1.947
				S11.68-48.76,11.68-47.684z"/>
			<path fill="#CB432D" d="M11.68-36.006c0,1.076,0.871,1.945,1.945,1.945s1.946-0.869,1.946-1.945s-0.872-1.945-1.946-1.945
				S11.68-37.082,11.68-36.006z"/>
		</g>
		<g>
			<path fill="#CB432D" d="M114.16-65.203c0,1.076,0.873,1.947,1.947,1.947c1.075,0,1.946-0.871,1.946-1.947
				c0-1.074-0.871-1.945-1.946-1.945C115.033-67.148,114.16-66.277,114.16-65.203z"/>
			<path fill="#CB432D" d="M108.322-59.363c0,1.076,0.871,1.947,1.946,1.947c1.074,0,1.946-0.871,1.946-1.947
				c0-1.074-0.872-1.945-1.946-1.945C109.193-61.309,108.322-60.438,108.322-59.363z"/>
			<path fill="#CB432D" d="M120-59.363c0,1.076,0.871,1.947,1.946,1.947s1.946-0.871,1.946-1.947c0-1.074-0.871-1.945-1.946-1.945
				S120-60.438,120-59.363z"/>
			<path fill="#CB432D" d="M114.16-53.523c0,1.074,0.873,1.947,1.947,1.947c1.075,0,1.946-0.873,1.946-1.947
				s-0.871-1.945-1.946-1.945C115.033-55.469,114.16-54.598,114.16-53.523z"/>
			<path fill="#CB432D" d="M114.16-41.846c0,1.074,0.873,1.945,1.947,1.945c1.075,0,1.946-0.871,1.946-1.945
				s-0.871-1.945-1.946-1.945C115.033-43.791,114.16-42.92,114.16-41.846z"/>
			<path fill="#CB432D" d="M108.322-47.684c0,1.074,0.871,1.945,1.946,1.945c1.074,0,1.946-0.871,1.946-1.945
				c0-1.076-0.872-1.947-1.946-1.947C109.193-49.631,108.322-48.76,108.322-47.684z"/>
			<path fill="#CB432D" d="M120-47.684c0,1.074,0.871,1.945,1.946,1.945s1.946-0.871,1.946-1.945c0-1.076-0.871-1.947-1.946-1.947
				S120-48.76,120-47.684z"/>
			<path fill="#CB432D" d="M108.322-36.006c0,1.076,0.871,1.945,1.946,1.945c1.074,0,1.946-0.869,1.946-1.945
				s-0.872-1.945-1.946-1.945C109.193-37.951,108.322-37.082,108.322-36.006z"/>
			<path fill="#CB432D" d="M120-36.006c0,1.076,0.871,1.945,1.946,1.945s1.946-0.869,1.946-1.945s-0.871-1.945-1.946-1.945
				S120-37.082,120-36.006z"/>
		</g>
		<g>
			<path fill="#CB432D" d="M78.322-65.688c0,1.074,0.871,1.945,1.946,1.945c1.074,0,1.946-0.871,1.946-1.945
				c0-1.076-0.872-1.945-1.946-1.945C79.193-67.634,78.322-66.765,78.322-65.688z"/>
			<path fill="#CB432D" d="M90-65.688c0,1.074,0.871,1.945,1.946,1.945s1.946-0.871,1.946-1.945c0-1.076-0.871-1.945-1.946-1.945
				S90-66.765,90-65.688z"/>
			<path fill="#CB432D" d="M101.68-65.688c0,1.074,0.871,1.945,1.945,1.945s1.946-0.871,1.946-1.945
				c0-1.076-0.872-1.945-1.946-1.945S101.68-66.765,101.68-65.688z"/>
			<path fill="#CB432D" d="M84.16-59.851c0,1.076,0.873,1.949,1.947,1.949c1.075,0,1.946-0.873,1.946-1.949
				c0-1.074-0.871-1.945-1.946-1.945C85.033-61.796,84.16-60.925,84.16-59.851z"/>
			<path fill="#CB432D" d="M84.16-48.173c0,1.076,0.873,1.947,1.947,1.947c1.075,0,1.946-0.871,1.946-1.947
				c0-1.074-0.871-1.945-1.946-1.945C85.033-50.118,84.16-49.247,84.16-48.173z"/>
			<path fill="#CB432D" d="M78.322-54.011c0,1.074,0.871,1.945,1.946,1.945c1.074,0,1.946-0.871,1.946-1.945
				s-0.872-1.947-1.946-1.947C79.193-55.958,78.322-55.085,78.322-54.011z"/>
			<path fill="#CB432D" d="M90-54.011c0,1.074,0.871,1.945,1.946,1.945s1.946-0.871,1.946-1.945s-0.871-1.947-1.946-1.947
				S90-55.085,90-54.011z"/>
			<path fill="#CB432D" d="M78.322-42.333c0,1.076,0.871,1.947,1.946,1.947c1.074,0,1.946-0.871,1.946-1.947
				c0-1.074-0.872-1.945-1.946-1.945C79.193-44.278,78.322-43.407,78.322-42.333z"/>
			<path fill="#CB432D" d="M90-42.333c0,1.076,0.871,1.947,1.946,1.947s1.946-0.871,1.946-1.947c0-1.074-0.871-1.945-1.946-1.945
				S90-43.407,90-42.333z"/>
			<path fill="#CB432D" d="M95.84-59.851c0,1.076,0.871,1.949,1.945,1.949c1.075,0,1.947-0.873,1.947-1.949
				c0-1.074-0.872-1.945-1.947-1.945C96.711-61.796,95.84-60.925,95.84-59.851z"/>
			<path fill="#CB432D" d="M95.84-48.173c0,1.076,0.871,1.947,1.945,1.947c1.075,0,1.947-0.871,1.947-1.947
				c0-1.074-0.872-1.945-1.947-1.945C96.711-50.118,95.84-49.247,95.84-48.173z"/>
			<path fill="#CB432D" d="M101.68-54.011c0,1.074,0.871,1.945,1.945,1.945s1.946-0.871,1.946-1.945s-0.872-1.947-1.946-1.947
				S101.68-55.085,101.68-54.011z"/>
			<path fill="#CB432D" d="M101.68-42.333c0,1.076,0.871,1.947,1.945,1.947s1.946-0.871,1.946-1.947
				c0-1.074-0.872-1.945-1.946-1.945S101.68-43.407,101.68-42.333z"/>
			<path fill="#CB432D" d="M84.16-36.493c0,1.074,0.873,1.947,1.947,1.947c1.075,0,1.946-0.873,1.946-1.947
				s-0.871-1.945-1.946-1.945C85.033-38.438,84.16-37.567,84.16-36.493z"/>
			<path fill="#CB432D" d="M84.16-24.815c0,1.074,0.873,1.945,1.947,1.945c1.075,0,1.946-0.871,1.946-1.945
				s-0.871-1.945-1.946-1.945C85.033-26.761,84.16-25.89,84.16-24.815z"/>
			<path fill="#CB432D" d="M78.322-30.653c0,1.074,0.871,1.945,1.946,1.945c1.074,0,1.946-0.871,1.946-1.945
				c0-1.076-0.872-1.947-1.946-1.947C79.193-32.601,78.322-31.729,78.322-30.653z"/>
			<path fill="#CB432D" d="M90-30.653c0,1.074,0.871,1.945,1.946,1.945s1.946-0.871,1.946-1.945c0-1.076-0.871-1.947-1.946-1.947
				S90-31.729,90-30.653z"/>
			<path fill="#CB432D" d="M78.322-18.976c0,1.076,0.871,1.945,1.946,1.945c1.074,0,1.946-0.869,1.946-1.945
				s-0.872-1.945-1.946-1.945C79.193-20.921,78.322-20.052,78.322-18.976z"/>
			<path fill="#CB432D" d="M90-18.976c0,1.076,0.871,1.945,1.946,1.945s1.946-0.869,1.946-1.945s-0.871-1.945-1.946-1.945
				S90-20.052,90-18.976z"/>
			<path fill="#CB432D" d="M95.84-36.493c0,1.074,0.871,1.947,1.945,1.947c1.075,0,1.947-0.873,1.947-1.947
				s-0.872-1.945-1.947-1.945C96.711-38.438,95.84-37.567,95.84-36.493z"/>
			<path fill="#CB432D" d="M95.84-24.815c0,1.074,0.871,1.945,1.945,1.945c1.075,0,1.947-0.871,1.947-1.945
				s-0.872-1.945-1.947-1.945C96.711-26.761,95.84-25.89,95.84-24.815z"/>
			<path fill="#CB432D" d="M101.68-30.653c0,1.074,0.871,1.945,1.945,1.945s1.946-0.871,1.946-1.945
				c0-1.076-0.872-1.947-1.946-1.947S101.68-31.729,101.68-30.653z"/>
			<path fill="#CB432D" d="M101.68-18.976c0,1.076,0.871,1.945,1.945,1.945s1.946-0.869,1.946-1.945s-0.872-1.945-1.946-1.945
				S101.68-20.052,101.68-18.976z"/>
		</g>
		<g>
			<path fill="#CB432D" d="M54.16-66.176c0,1.074,0.873,1.945,1.947,1.945c1.075,0,1.946-0.871,1.946-1.945
				c0-1.076-0.871-1.945-1.946-1.945C55.033-68.121,54.16-67.252,54.16-66.176z"/>
			<path fill="#CB432D" d="M54.16-54.498c0,1.076,0.873,1.945,1.947,1.945c1.075,0,1.946-0.869,1.946-1.945
				c0-1.074-0.871-1.945-1.946-1.945C55.033-56.443,54.16-55.572,54.16-54.498z"/>
			<path fill="#CB432D" d="M48.322-60.338c0,1.076,0.871,1.947,1.946,1.947c1.074,0,1.946-0.871,1.946-1.947
				c0-1.074-0.872-1.945-1.946-1.945C49.193-62.283,48.322-61.412,48.322-60.338z"/>
			<path fill="#CB432D" d="M60-60.338c0,1.076,0.871,1.947,1.946,1.947s1.946-0.871,1.946-1.947c0-1.074-0.871-1.945-1.946-1.945
				S60-61.412,60-60.338z"/>
			<path fill="#CB432D" d="M48.322-48.658c0,1.074,0.871,1.945,1.946,1.945c1.074,0,1.946-0.871,1.946-1.945
				c0-1.076-0.872-1.945-1.946-1.945C49.193-50.604,48.322-49.734,48.322-48.658z"/>
			<path fill="#CB432D" d="M60-48.658c0,1.074,0.871,1.945,1.946,1.945s1.946-0.871,1.946-1.945c0-1.076-0.871-1.945-1.946-1.945
				S60-49.734,60-48.658z"/>
			<path fill="#CB432D" d="M65.84-66.176c0,1.074,0.871,1.945,1.945,1.945c1.075,0,1.947-0.871,1.947-1.945
				c0-1.076-0.872-1.945-1.947-1.945C66.711-68.121,65.84-67.252,65.84-66.176z"/>
			<path fill="#CB432D" d="M65.84-54.498c0,1.076,0.871,1.945,1.945,1.945c1.075,0,1.947-0.869,1.947-1.945
				c0-1.074-0.872-1.945-1.947-1.945C66.711-56.443,65.84-55.572,65.84-54.498z"/>
			<path fill="#CB432D" d="M71.68-60.338c0,1.076,0.871,1.947,1.945,1.947s1.946-0.871,1.946-1.947c0-1.074-0.872-1.945-1.946-1.945
				S71.68-61.412,71.68-60.338z"/>
			<path fill="#CB432D" d="M71.68-48.658c0,1.074,0.871,1.945,1.945,1.945s1.946-0.871,1.946-1.945c0-1.076-0.872-1.945-1.946-1.945
				S71.68-49.734,71.68-48.658z"/>
			<path fill="#CB432D" d="M54.16-42.82c0,1.076,0.873,1.949,1.947,1.949c1.075,0,1.946-0.873,1.946-1.949
				c0-1.074-0.871-1.945-1.946-1.945C55.033-44.766,54.16-43.895,54.16-42.82z"/>
			<path fill="#CB432D" d="M54.16-31.143c0,1.076,0.873,1.947,1.947,1.947c1.075,0,1.946-0.871,1.946-1.947
				c0-1.074-0.871-1.945-1.946-1.945C55.033-33.088,54.16-32.217,54.16-31.143z"/>
			<path fill="#CB432D" d="M48.322-36.98c0,1.074,0.871,1.945,1.946,1.945c1.074,0,1.946-0.871,1.946-1.945
				s-0.872-1.947-1.946-1.947C49.193-38.928,48.322-38.055,48.322-36.98z"/>
			<path fill="#CB432D" d="M60-36.98c0,1.074,0.871,1.945,1.946,1.945s1.946-0.871,1.946-1.945s-0.871-1.947-1.946-1.947
				S60-38.055,60-36.98z"/>
			<path fill="#CB432D" d="M48.322-25.303c0,1.076,0.871,1.947,1.946,1.947c1.074,0,1.946-0.871,1.946-1.947
				c0-1.074-0.872-1.945-1.946-1.945C49.193-27.248,48.322-26.377,48.322-25.303z"/>
			<path fill="#CB432D" d="M60-25.303c0,1.076,0.871,1.947,1.946,1.947s1.946-0.871,1.946-1.947c0-1.074-0.871-1.945-1.946-1.945
				S60-26.377,60-25.303z"/>
			<path fill="#CB432D" d="M65.84-42.82c0,1.076,0.871,1.949,1.945,1.949c1.075,0,1.947-0.873,1.947-1.949
				c0-1.074-0.872-1.945-1.947-1.945C66.711-44.766,65.84-43.895,65.84-42.82z"/>
			<path fill="#CB432D" d="M65.84-31.143c0,1.076,0.871,1.947,1.945,1.947c1.075,0,1.947-0.871,1.947-1.947
				c0-1.074-0.872-1.945-1.947-1.945C66.711-33.088,65.84-32.217,65.84-31.143z"/>
			<path fill="#CB432D" d="M71.68-36.98c0,1.074,0.871,1.945,1.945,1.945s1.946-0.871,1.946-1.945s-0.872-1.947-1.946-1.947
				S71.68-38.055,71.68-36.98z"/>
			<path fill="#CB432D" d="M71.68-25.303c0,1.076,0.871,1.947,1.945,1.947s1.946-0.871,1.946-1.947c0-1.074-0.872-1.945-1.946-1.945
				S71.68-26.377,71.68-25.303z"/>
			<path fill="#CB432D" d="M54.16-19.463c0,1.074,0.873,1.947,1.947,1.947c1.075,0,1.946-0.873,1.946-1.947
				s-0.871-1.945-1.946-1.945C55.033-21.408,54.16-20.537,54.16-19.463z"/>
			<path fill="#CB432D" d="M54.16-7.785c0,1.074,0.873,1.945,1.947,1.945c1.075,0,1.946-0.871,1.946-1.945S57.183-9.73,56.107-9.73
				C55.033-9.73,54.16-8.859,54.16-7.785z"/>
			<path fill="#CB432D" d="M48.322-13.623c0,1.074,0.871,1.945,1.946,1.945c1.074,0,1.946-0.871,1.946-1.945
				c0-1.076-0.872-1.947-1.946-1.947C49.193-15.57,48.322-14.699,48.322-13.623z"/>
			<path fill="#CB432D" d="M60-13.623c0,1.074,0.871,1.945,1.946,1.945s1.946-0.871,1.946-1.945c0-1.076-0.871-1.947-1.946-1.947
				S60-14.699,60-13.623z"/>
			<path fill="#CB432D" d="M48.322-1.945C48.322-0.869,49.193,0,50.269,0c1.074,0,1.946-0.869,1.946-1.945s-0.872-1.945-1.946-1.945
				C49.193-3.891,48.322-3.021,48.322-1.945z"/>
			<path fill="#CB432D" d="M60-1.945C60-0.869,60.871,0,61.946,0s1.946-0.869,1.946-1.945s-0.871-1.945-1.946-1.945
				S60-3.021,60-1.945z"/>
			<path fill="#CB432D" d="M65.84-19.463c0,1.074,0.871,1.947,1.945,1.947c1.075,0,1.947-0.873,1.947-1.947
				s-0.872-1.945-1.947-1.945C66.711-21.408,65.84-20.537,65.84-19.463z"/>
			<path fill="#CB432D" d="M65.84-7.785c0,1.074,0.871,1.945,1.945,1.945c1.075,0,1.947-0.871,1.947-1.945S68.86-9.73,67.785-9.73
				C66.711-9.73,65.84-8.859,65.84-7.785z"/>
			<path fill="#CB432D" d="M71.68-13.623c0,1.074,0.871,1.945,1.945,1.945s1.946-0.871,1.946-1.945c0-1.076-0.872-1.947-1.946-1.947
				S71.68-14.699,71.68-13.623z"/>
			<path fill="#CB432D" d="M71.68-1.945C71.68-0.869,72.551,0,73.625,0s1.946-0.869,1.946-1.945s-0.872-1.945-1.946-1.945
				S71.68-3.021,71.68-1.945z"/>
		</g>
		<g>
			<path fill="#CB432D" d="M24.16-49.146c0,1.074,0.873,1.945,1.947,1.945c1.075,0,1.946-0.871,1.946-1.945
				c0-1.076-0.871-1.945-1.946-1.945C25.033-51.091,24.16-50.222,24.16-49.146z"/>
			<path fill="#CB432D" d="M24.16-37.468c0,1.076,0.873,1.945,1.947,1.945c1.075,0,1.946-0.869,1.946-1.945
				c0-1.074-0.871-1.945-1.946-1.945C25.033-39.413,24.16-38.542,24.16-37.468z"/>
			<path fill="#CB432D" d="M18.322-43.308c0,1.076,0.871,1.947,1.946,1.947c1.074,0,1.946-0.871,1.946-1.947
				c0-1.074-0.872-1.945-1.946-1.945C19.193-45.253,18.322-44.382,18.322-43.308z"/>
			<path fill="#CB432D" d="M30-43.308c0,1.076,0.871,1.947,1.946,1.947s1.946-0.871,1.946-1.947c0-1.074-0.871-1.945-1.946-1.945
				S30-44.382,30-43.308z"/>
			<path fill="#CB432D" d="M18.322-31.628c0,1.074,0.871,1.945,1.946,1.945c1.074,0,1.946-0.871,1.946-1.945
				c0-1.076-0.872-1.945-1.946-1.945C19.193-33.573,18.322-32.704,18.322-31.628z"/>
			<path fill="#CB432D" d="M30-31.628c0,1.074,0.871,1.945,1.946,1.945s1.946-0.871,1.946-1.945c0-1.076-0.871-1.945-1.946-1.945
				S30-32.704,30-31.628z"/>
			<path fill="#CB432D" d="M35.84-49.146c0,1.074,0.871,1.945,1.945,1.945c1.075,0,1.947-0.871,1.947-1.945
				c0-1.076-0.872-1.945-1.947-1.945C36.711-51.091,35.84-50.222,35.84-49.146z"/>
			<path fill="#CB432D" d="M35.84-37.468c0,1.076,0.871,1.945,1.945,1.945c1.075,0,1.947-0.869,1.947-1.945
				c0-1.074-0.872-1.945-1.947-1.945C36.711-39.413,35.84-38.542,35.84-37.468z"/>
			<path fill="#CB432D" d="M41.68-43.308c0,1.076,0.871,1.947,1.945,1.947s1.946-0.871,1.946-1.947c0-1.074-0.872-1.945-1.946-1.945
				S41.68-44.382,41.68-43.308z"/>
			<path fill="#CB432D" d="M41.68-31.628c0,1.074,0.871,1.945,1.945,1.945s1.946-0.871,1.946-1.945c0-1.076-0.872-1.945-1.946-1.945
				S41.68-32.704,41.68-31.628z"/>
			<path fill="#CB432D" d="M24.16-25.79c0,1.076,0.873,1.949,1.947,1.949c1.075,0,1.946-0.873,1.946-1.949
				c0-1.074-0.871-1.945-1.946-1.945C25.033-27.735,24.16-26.864,24.16-25.79z"/>
			<path fill="#CB432D" d="M24.16-14.112c0,1.076,0.873,1.947,1.947,1.947c1.075,0,1.946-0.871,1.946-1.947
				c0-1.074-0.871-1.945-1.946-1.945C25.033-16.058,24.16-15.187,24.16-14.112z"/>
			<path fill="#CB432D" d="M18.322-19.95c0,1.074,0.871,1.945,1.946,1.945c1.074,0,1.946-0.871,1.946-1.945
				s-0.872-1.947-1.946-1.947C19.193-21.897,18.322-21.024,18.322-19.95z"/>
			<path fill="#CB432D" d="M30-19.95c0,1.074,0.871,1.945,1.946,1.945s1.946-0.871,1.946-1.945s-0.871-1.947-1.946-1.947
				S30-21.024,30-19.95z"/>
			<path fill="#CB432D" d="M18.322-8.272c0,1.076,0.871,1.947,1.946,1.947c1.074,0,1.946-0.871,1.946-1.947
				c0-1.074-0.872-1.945-1.946-1.945C19.193-10.218,18.322-9.347,18.322-8.272z"/>
			<path fill="#CB432D" d="M30-8.272c0,1.076,0.871,1.947,1.946,1.947s1.946-0.871,1.946-1.947c0-1.074-0.871-1.945-1.946-1.945
				S30-9.347,30-8.272z"/>
			<path fill="#CB432D" d="M35.84-25.79c0,1.076,0.871,1.949,1.945,1.949c1.075,0,1.947-0.873,1.947-1.949
				c0-1.074-0.872-1.945-1.947-1.945C36.711-27.735,35.84-26.864,35.84-25.79z"/>
			<path fill="#CB432D" d="M35.84-14.112c0,1.076,0.871,1.947,1.945,1.947c1.075,0,1.947-0.871,1.947-1.947
				c0-1.074-0.872-1.945-1.947-1.945C36.711-16.058,35.84-15.187,35.84-14.112z"/>
			<path fill="#CB432D" d="M41.68-19.95c0,1.074,0.871,1.945,1.945,1.945s1.946-0.871,1.946-1.945s-0.872-1.947-1.946-1.947
				S41.68-21.024,41.68-19.95z"/>
			<path fill="#CB432D" d="M41.68-8.272c0,1.076,0.871,1.947,1.945,1.947s1.946-0.871,1.946-1.947c0-1.074-0.872-1.945-1.946-1.945
				S41.68-9.347,41.68-8.272z"/>
			<path fill="#CB432D" d="M24.16-2.433c0,1.074,0.873,1.947,1.947,1.947c1.075,0,1.946-0.873,1.946-1.947s-0.871-1.945-1.946-1.945
				C25.033-4.378,24.16-3.507,24.16-2.433z"/>
			<path fill="#CB432D" d="M35.84-2.433c0,1.074,0.871,1.947,1.945,1.947c1.075,0,1.947-0.873,1.947-1.947s-0.872-1.945-1.947-1.945
				C36.711-4.378,35.84-3.507,35.84-2.433z"/>
		</g>
		<g>
			<path fill="#CB432D" d="M0-26.277c0,1.076,0.871,1.947,1.946,1.947s1.946-0.871,1.946-1.947c0-1.074-0.871-1.945-1.946-1.945
				S0-27.352,0-26.277z"/>
			<path fill="#CB432D" d="M0-14.598c0,1.074,0.871,1.945,1.946,1.945s1.946-0.871,1.946-1.945c0-1.076-0.871-1.945-1.946-1.945
				S0-15.674,0-14.598z"/>
			<path fill="#CB432D" d="M5.84-32.115c0,1.074,0.871,1.945,1.945,1.945c1.075,0,1.947-0.871,1.947-1.945
				c0-1.076-0.872-1.945-1.947-1.945C6.711-34.061,5.84-33.191,5.84-32.115z"/>
			<path fill="#CB432D" d="M5.84-20.438c0,1.076,0.871,1.945,1.945,1.945c1.075,0,1.947-0.869,1.947-1.945
				c0-1.074-0.872-1.945-1.947-1.945C6.711-22.383,5.84-21.512,5.84-20.438z"/>
			<path fill="#CB432D" d="M11.68-26.277c0,1.076,0.871,1.947,1.945,1.947s1.946-0.871,1.946-1.947c0-1.074-0.872-1.945-1.946-1.945
				S11.68-27.352,11.68-26.277z"/>
			<path fill="#CB432D" d="M11.68-14.598c0,1.074,0.871,1.945,1.945,1.945s1.946-0.871,1.946-1.945c0-1.076-0.872-1.945-1.946-1.945
				S11.68-15.674,11.68-14.598z"/>
			<path fill="#CB432D" d="M0-2.92c0,1.074,0.871,1.945,1.946,1.945S3.893-1.846,3.893-2.92S3.021-4.867,1.946-4.867S0-3.994,0-2.92
				z"/>
			<path fill="#CB432D" d="M5.84-8.76c0,1.076,0.871,1.949,1.945,1.949c1.075,0,1.947-0.873,1.947-1.949
				c0-1.074-0.872-1.945-1.947-1.945C6.711-10.705,5.84-9.834,5.84-8.76z"/>
			<path fill="#CB432D" d="M11.68-2.92c0,1.074,0.871,1.945,1.945,1.945s1.946-0.871,1.946-1.945s-0.872-1.947-1.946-1.947
				S11.68-3.994,11.68-2.92z"/>
		</g>
		<g>
			<path fill="#CB432D" d="M114.16-32.115c0,1.074,0.873,1.945,1.947,1.945c1.075,0,1.946-0.871,1.946-1.945
				c0-1.076-0.871-1.945-1.946-1.945C115.033-34.061,114.16-33.191,114.16-32.115z"/>
			<path fill="#CB432D" d="M114.16-20.438c0,1.076,0.873,1.945,1.947,1.945c1.075,0,1.946-0.869,1.946-1.945
				c0-1.074-0.871-1.945-1.946-1.945C115.033-22.383,114.16-21.512,114.16-20.438z"/>
			<path fill="#CB432D" d="M108.322-26.277c0,1.076,0.871,1.947,1.946,1.947c1.074,0,1.946-0.871,1.946-1.947
				c0-1.074-0.872-1.945-1.946-1.945C109.193-28.223,108.322-27.352,108.322-26.277z"/>
			<path fill="#CB432D" d="M120-26.277c0,1.076,0.871,1.947,1.946,1.947s1.946-0.871,1.946-1.947c0-1.074-0.871-1.945-1.946-1.945
				S120-27.352,120-26.277z"/>
			<path fill="#CB432D" d="M108.322-14.598c0,1.074,0.871,1.945,1.946,1.945c1.074,0,1.946-0.871,1.946-1.945
				c0-1.076-0.872-1.945-1.946-1.945C109.193-16.543,108.322-15.674,108.322-14.598z"/>
			<path fill="#CB432D" d="M120-14.598c0,1.074,0.871,1.945,1.946,1.945s1.946-0.871,1.946-1.945c0-1.076-0.871-1.945-1.946-1.945
				S120-15.674,120-14.598z"/>
			<path fill="#CB432D" d="M114.16-8.76c0,1.076,0.873,1.949,1.947,1.949c1.075,0,1.946-0.873,1.946-1.949
				c0-1.074-0.871-1.945-1.946-1.945C115.033-10.705,114.16-9.834,114.16-8.76z"/>
			<path fill="#CB432D" d="M108.322-2.92c0,1.074,0.871,1.945,1.946,1.945c1.074,0,1.946-0.871,1.946-1.945
				s-0.872-1.947-1.946-1.947C109.193-4.867,108.322-3.994,108.322-2.92z"/>
			<path fill="#CB432D" d="M120-2.92c0,1.074,0.871,1.945,1.946,1.945s1.946-0.871,1.946-1.945s-0.871-1.947-1.946-1.947
				S120-3.994,120-2.92z"/>
		</g>
		<g>
			<path fill="#CB432D" d="M84.16-15.085c0,1.074,0.873,1.945,1.947,1.945c1.075,0,1.946-0.871,1.946-1.945
				c0-1.076-0.871-1.945-1.946-1.945C85.033-17.03,84.16-16.161,84.16-15.085z"/>
			<path fill="#CB432D" d="M84.16-3.407c0,1.076,0.873,1.945,1.947,1.945c1.075,0,1.946-0.869,1.946-1.945
				c0-1.074-0.871-1.945-1.946-1.945C85.033-5.353,84.16-4.481,84.16-3.407z"/>
			<path fill="#CB432D" d="M78.322-9.247c0,1.076,0.871,1.947,1.946,1.947c1.074,0,1.946-0.871,1.946-1.947
				c0-1.074-0.872-1.945-1.946-1.945C79.193-11.192,78.322-10.321,78.322-9.247z"/>
			<path fill="#CB432D" d="M90-9.247C90-8.171,90.871-7.3,91.946-7.3s1.946-0.871,1.946-1.947c0-1.074-0.871-1.945-1.946-1.945
				S90-10.321,90-9.247z"/>
			<path fill="#CB432D" d="M95.84-15.085c0,1.074,0.871,1.945,1.945,1.945c1.075,0,1.947-0.871,1.947-1.945
				c0-1.076-0.872-1.945-1.947-1.945C96.711-17.03,95.84-16.161,95.84-15.085z"/>
			<path fill="#CB432D" d="M95.84-3.407c0,1.076,0.871,1.945,1.945,1.945c1.075,0,1.947-0.869,1.947-1.945
				c0-1.074-0.872-1.945-1.947-1.945C96.711-5.353,95.84-4.481,95.84-3.407z"/>
			<path fill="#CB432D" d="M101.68-9.247c0,1.076,0.871,1.947,1.945,1.947s1.946-0.871,1.946-1.947c0-1.074-0.872-1.945-1.946-1.945
				S101.68-10.321,101.68-9.247z"/>
		</g>
	</g>
</pattern>
<g id="Calque_1_-_copie">
	<g id="Nouveau_symbole_1_">
	</g>
	<g id="Nouveau_symbole">
	</g>
	<g>
		<path fill="none" stroke="#CB432D" stroke-width="2" stroke-miterlimit="10" d="M56.5,48.792c0,9.546-6.528,17.356-14.5,17.356
			c-7.973,0-14.5-7.811-14.5-17.356V18.045C27.5,8.5,34.027,0.689,42,0.689c7.972,0,14.5,7.811,14.5,17.355V48.792z"/>
		<line fill="none" stroke="#CB432D" stroke-width="2" stroke-miterlimit="10" x1="31.5" y1="80.439" x2="51.5" y2="80.439"/>
		<line fill="none" stroke="#CB432D" stroke-width="2" stroke-miterlimit="10" x1="42.5" y1="80.439" x2="42.5" y2="70.439"/>
		<path fill="none" stroke="#CB432D" stroke-width="2" stroke-miterlimit="10" d="M60.5,36.439c0,0,0,7.437,0,16.919
			S52.043,70.6,42,70.6s-18.5-7.759-18.5-17.241s0-16.919,0-16.919"/>
		<g>
			<defs>
				<path id="SVGID_24_" d="M56.5,48.792c0,9.546-6.528,17.356-14.5,17.356c-7.973,0-14.5-7.811-14.5-17.356V18.045
					C27.5,8.5,34.027,0.689,42,0.689c7.972,0,14.5,7.811,14.5,17.355V48.792z"/>
			</defs>
			<clipPath id="SVGID_2_">
				<use xlink:href="#SVGID_24_"  overflow="visible"/>
			</clipPath>
			<pattern  id="SVGID_4_" xlink:href="#Nouvelle_nuance_de_motif_1" patternTransform="matrix(1 0 0 1 -110 3.2422)">
			</pattern>
			<rect x="-26.5" y="-13.561" clip-path="url(#SVGID_2_)" fill="url(#SVGID_4_)" width="140" height="99"/>
		</g>
	</g>
</g>
<g id="Calque_9" display="none">
</g>
<g id="Calque_1" display="none">
</g>
<g id="home_bleu" display="none">
	<g id="Nouveau_symbole_1_1_" display="inline">
	</g>
</g>
<g id="home_rouge">
	<g id="Nouveau_symbole_1">
	</g>
</g>
<g id="home_classique" display="none">
	<g id="Nouveau_symbole_2" display="inline">
	</g>
</g>
<g id="home3" display="none">
</g>
</svg>
