<?xml version="1.0" encoding="utf-8"?>
<!-- Generator: Adobe Illustrator 16.0.0, SVG Export Plug-In . SVG Version: 6.00 Build 0)  -->
<!DOCTYPE svg PUBLIC "-//W3C//DTD SVG 1.1//EN" "http://www.w3.org/Graphics/SVG/1.1/DTD/svg11.dtd">
<svg version="1.1" xmlns="http://www.w3.org/2000/svg" xmlns:xlink="http://www.w3.org/1999/xlink" x="0px" y="0px"
	 width="92.723px" height="82px" viewBox="0 0 92.723 82" enable-background="new 0 0 92.723 82" xml:space="preserve">
<g id="Calque_1_-_copie">
	<g id="Nouveau_symbole_1_">
	</g>
	<g id="Nouveau_symbole">
	</g>
	<g>
		<g>
			<ellipse fill="none" stroke="#CB432D" stroke-width="2" stroke-miterlimit="10" cx="41.506" cy="9.191" rx="40.506" ry="8.19"/>
			<path fill="none" stroke="#CB432D" stroke-width="2" stroke-miterlimit="10" d="M1,9.191v11.3c0,0,6.91,8.281,40.506,8.281
				s40.506-8.521,40.506-8.521V9.191"/>
			<line fill="none" stroke="#CB432D" stroke-width="2" stroke-miterlimit="10" x1="9.49" y1="14.21" x2="9.49" y2="24.914"/>
			<line fill="none" stroke="#CB432D" stroke-width="2" stroke-miterlimit="10" x1="17.477" y1="15.785" x2="17.477" y2="26.899"/>
			<line fill="none" stroke="#CB432D" stroke-width="2" stroke-miterlimit="10" x1="25.039" y1="16.677" x2="25.039" y2="27.981"/>
			<line fill="none" stroke="#CB432D" stroke-width="2" stroke-miterlimit="10" x1="32.733" y1="17.382" x2="32.733" y2="28.567"/>
			<line fill="none" stroke="#CB432D" stroke-width="2" stroke-miterlimit="10" x1="41.506" y1="17.382" x2="41.506" y2="28.772"/>
			<line fill="none" stroke="#CB432D" stroke-width="2" stroke-miterlimit="10" x1="51.217" y1="17.382" x2="51.217" y2="28.512"/>
			<line fill="none" stroke="#CB432D" stroke-width="2" stroke-miterlimit="10" x1="58.418" y1="16.677" x2="58.418" y2="27.909"/>
			<line fill="none" stroke="#CB432D" stroke-width="2" stroke-miterlimit="10" x1="66.22" y1="15.785" x2="66.22" y2="26.712"/>
			<line fill="none" stroke="#CB432D" stroke-width="2" stroke-miterlimit="10" x1="73.521" y1="14.21" x2="73.521" y2="24.636"/>
		</g>
		<g>
			<path fill="none" stroke="#CB432D" stroke-width="2" stroke-miterlimit="10" d="M79.832,21.956
				c7.346,1.482,11.891,3.532,11.891,5.797c0,4.524-18.135,8.191-40.506,8.191s-40.506-3.667-40.506-8.191
				c0-0.72,0.459-1.417,1.32-2.082"/>
			<path fill="none" stroke="#CB432D" stroke-width="2" stroke-miterlimit="10" d="M10.711,27.753v11.3c0,0,6.91,8.282,40.506,8.282
				s40.506-8.522,40.506-8.522v-11.06"/>
			<line fill="none" stroke="#CB432D" stroke-width="2" stroke-miterlimit="10" x1="19.2" y1="32.771" x2="19.2" y2="43.476"/>
			<line fill="none" stroke="#CB432D" stroke-width="2" stroke-miterlimit="10" x1="27.188" y1="34.348" x2="27.188" y2="45.46"/>
			<line fill="none" stroke="#CB432D" stroke-width="2" stroke-miterlimit="10" x1="34.75" y1="35.239" x2="34.75" y2="46.543"/>
			<line fill="none" stroke="#CB432D" stroke-width="2" stroke-miterlimit="10" x1="42.443" y1="35.944" x2="42.443" y2="47.129"/>
			<line fill="none" stroke="#CB432D" stroke-width="2" stroke-miterlimit="10" x1="51.217" y1="35.944" x2="51.217" y2="47.335"/>
			<line fill="none" stroke="#CB432D" stroke-width="2" stroke-miterlimit="10" x1="60.928" y1="35.944" x2="60.928" y2="47.072"/>
			<line fill="none" stroke="#CB432D" stroke-width="2" stroke-miterlimit="10" x1="68.129" y1="35.239" x2="68.129" y2="46.471"/>
			<line fill="none" stroke="#CB432D" stroke-width="2" stroke-miterlimit="10" x1="75.93" y1="34.348" x2="75.93" y2="45.272"/>
			<line fill="none" stroke="#CB432D" stroke-width="2" stroke-miterlimit="10" x1="83.232" y1="32.771" x2="83.232" y2="43.198"/>
		</g>
		<g>
			<path fill="none" stroke="#CB432D" stroke-width="2" stroke-miterlimit="10" d="M82.012,44.136
				c0,4.523-18.135,8.191-40.506,8.191S1,48.659,1,44.136c0-2.031,3.656-3.89,9.711-5.322"/>
			<path fill="none" stroke="#CB432D" stroke-width="2" stroke-miterlimit="10" d="M1,44.136v11.3c0,0,6.91,8.282,40.506,8.282
				s40.506-8.523,40.506-8.523V43.757"/>
			<line fill="none" stroke="#CB432D" stroke-width="2" stroke-miterlimit="10" x1="9.49" y1="49.153" x2="9.49" y2="59.858"/>
			<line fill="none" stroke="#CB432D" stroke-width="2" stroke-miterlimit="10" x1="17.477" y1="50.73" x2="17.477" y2="61.843"/>
			<line fill="none" stroke="#CB432D" stroke-width="2" stroke-miterlimit="10" x1="25.039" y1="51.621" x2="25.039" y2="62.926"/>
			<line fill="none" stroke="#CB432D" stroke-width="2" stroke-miterlimit="10" x1="32.733" y1="52.327" x2="32.733" y2="63.512"/>
			<line fill="none" stroke="#CB432D" stroke-width="2" stroke-miterlimit="10" x1="41.506" y1="52.327" x2="41.506" y2="63.718"/>
			<line fill="none" stroke="#CB432D" stroke-width="2" stroke-miterlimit="10" x1="51.217" y1="52.327" x2="51.217" y2="63.455"/>
			<line fill="none" stroke="#CB432D" stroke-width="2" stroke-miterlimit="10" x1="58.418" y1="51.621" x2="58.418" y2="62.853"/>
			<line fill="none" stroke="#CB432D" stroke-width="2" stroke-miterlimit="10" x1="66.22" y1="50.73" x2="66.22" y2="61.655"/>
			<line fill="none" stroke="#CB432D" stroke-width="2" stroke-miterlimit="10" x1="73.521" y1="49.153" x2="73.521" y2="59.58"/>
		</g>
		<g>
			<path fill="none" stroke="#CB432D" stroke-width="2" stroke-miterlimit="10" d="M79.823,56.839
				c4.368,1.308,6.919,2.883,6.919,4.579c0,4.524-18.137,8.192-40.507,8.192S5.729,65.942,5.729,61.418
				c0-0.804,0.573-1.581,1.642-2.315"/>
			<path fill="none" stroke="#CB432D" stroke-width="2" stroke-miterlimit="10" d="M5.729,61.418v11.301
				c0,0,6.911,8.281,40.506,8.281s40.507-8.521,40.507-8.521V61.418"/>
			<line fill="none" stroke="#CB432D" stroke-width="2" stroke-miterlimit="10" x1="14.22" y1="66.437" x2="14.22" y2="77.142"/>
			<line fill="none" stroke="#CB432D" stroke-width="2" stroke-miterlimit="10" x1="22.205" y1="68.014" x2="22.205" y2="79.126"/>
			<line fill="none" stroke="#CB432D" stroke-width="2" stroke-miterlimit="10" x1="29.769" y1="68.905" x2="29.769" y2="80.209"/>
			<line fill="none" stroke="#CB432D" stroke-width="2" stroke-miterlimit="10" x1="37.463" y1="69.61" x2="37.463" y2="80.796"/>
			<line fill="none" stroke="#CB432D" stroke-width="2" stroke-miterlimit="10" x1="46.235" y1="69.61" x2="46.235" y2="81"/>
			<line fill="none" stroke="#CB432D" stroke-width="2" stroke-miterlimit="10" x1="55.946" y1="69.61" x2="55.946" y2="80.738"/>
			<line fill="none" stroke="#CB432D" stroke-width="2" stroke-miterlimit="10" x1="63.148" y1="68.905" x2="63.148" y2="80.137"/>
			<line fill="none" stroke="#CB432D" stroke-width="2" stroke-miterlimit="10" x1="70.949" y1="68.014" x2="70.949" y2="78.938"/>
			<line fill="none" stroke="#CB432D" stroke-width="2" stroke-miterlimit="10" x1="78.251" y1="66.437" x2="78.251" y2="76.863"/>
		</g>
	</g>
</g>
<g id="Calque_9" display="none">
</g>
<g id="Calque_1" display="none">
</g>
<g id="home_bleu" display="none">
	<g id="Nouveau_symbole_1_1_" display="inline">
	</g>
</g>
<g id="home_rouge">
	<g id="Nouveau_symbole_1">
	</g>
</g>
<g id="home_classique" display="none">
	<g id="Nouveau_symbole_2" display="inline">
	</g>
</g>
<g id="home3" display="none">
</g>
</svg>
