<?xml version="1.0" encoding="utf-8"?>
<!-- Generator: Adobe Illustrator 16.0.0, SVG Export Plug-In . SVG Version: 6.00 Build 0)  -->
<!DOCTYPE svg PUBLIC "-//W3C//DTD SVG 1.1//EN" "http://www.w3.org/Graphics/SVG/1.1/DTD/svg11.dtd">
<svg version="1.1" xmlns="http://www.w3.org/2000/svg" xmlns:xlink="http://www.w3.org/1999/xlink" x="0px" y="0px"
	 width="172.105px" height="152px" viewBox="0 0 172.105 152" enable-background="new 0 0 172.105 152" xml:space="preserve">
<g id="Calque_1_-_copie">
	<g id="Nouveau_symbole_1_">
	</g>
	<g id="Nouveau_symbole">
	</g>
	<g>
		<g>
			
				<ellipse fill="none" stroke="#CB432D" stroke-width="2" stroke-miterlimit="10" cx="76.948" cy="16.359" rx="75.948" ry="15.357"/>
			<path fill="none" stroke="#CB432D" stroke-width="2" stroke-miterlimit="10" d="M1,16.359v21.186
				c0,0,12.956,15.529,75.948,15.529c62.991,0,75.948-15.979,75.948-15.979V16.359"/>
			<line fill="none" stroke="#CB432D" stroke-width="2" stroke-miterlimit="10" x1="16.919" y1="25.769" x2="16.919" y2="45.839"/>
			<line fill="none" stroke="#CB432D" stroke-width="2" stroke-miterlimit="10" x1="31.893" y1="28.723" x2="31.893" y2="49.561"/>
			<line fill="none" stroke="#CB432D" stroke-width="2" stroke-miterlimit="10" x1="46.072" y1="30.395" x2="46.072" y2="51.59"/>
			<line fill="none" stroke="#CB432D" stroke-width="2" stroke-miterlimit="10" x1="60.5" y1="31.717" x2="60.5" y2="52.688"/>
			<line fill="none" stroke="#CB432D" stroke-width="2" stroke-miterlimit="10" x1="76.948" y1="31.717" x2="76.948" y2="53.074"/>
			<line fill="none" stroke="#CB432D" stroke-width="2" stroke-miterlimit="10" x1="95.156" y1="31.717" x2="95.156" y2="52.584"/>
			
				<line fill="none" stroke="#CB432D" stroke-width="2" stroke-miterlimit="10" x1="108.659" y1="30.395" x2="108.659" y2="51.454"/>
			
				<line fill="none" stroke="#CB432D" stroke-width="2" stroke-miterlimit="10" x1="123.287" y1="28.723" x2="123.287" y2="49.209"/>
			
				<line fill="none" stroke="#CB432D" stroke-width="2" stroke-miterlimit="10" x1="136.978" y1="25.769" x2="136.978" y2="45.317"/>
		</g>
		<g>
			<path fill="none" stroke="#CB432D" stroke-width="2" stroke-miterlimit="10" d="M148.812,40.292
				c13.772,2.78,22.294,6.624,22.294,10.87c0,8.482-34.004,15.357-75.949,15.357s-75.948-6.875-75.948-15.357
				c0-1.35,0.86-2.657,2.475-3.904"/>
			<path fill="none" stroke="#CB432D" stroke-width="2" stroke-miterlimit="10" d="M19.208,51.162v21.187
				c0,0,12.957,15.528,75.948,15.528s75.949-15.979,75.949-15.979V51.162"/>
			<line fill="none" stroke="#CB432D" stroke-width="2" stroke-miterlimit="10" x1="35.126" y1="60.571" x2="35.126" y2="80.643"/>
			<line fill="none" stroke="#CB432D" stroke-width="2" stroke-miterlimit="10" x1="50.101" y1="63.526" x2="50.101" y2="84.363"/>
			<line fill="none" stroke="#CB432D" stroke-width="2" stroke-miterlimit="10" x1="64.28" y1="65.198" x2="64.28" y2="86.394"/>
			<line fill="none" stroke="#CB432D" stroke-width="2" stroke-miterlimit="10" x1="78.707" y1="66.52" x2="78.707" y2="87.492"/>
			<line fill="none" stroke="#CB432D" stroke-width="2" stroke-miterlimit="10" x1="95.156" y1="66.52" x2="95.156" y2="87.877"/>
			<line fill="none" stroke="#CB432D" stroke-width="2" stroke-miterlimit="10" x1="113.364" y1="66.52" x2="113.364" y2="87.386"/>
			
				<line fill="none" stroke="#CB432D" stroke-width="2" stroke-miterlimit="10" x1="126.867" y1="65.198" x2="126.867" y2="86.258"/>
			
				<line fill="none" stroke="#CB432D" stroke-width="2" stroke-miterlimit="10" x1="141.494" y1="63.526" x2="141.494" y2="84.011"/>
			
				<line fill="none" stroke="#CB432D" stroke-width="2" stroke-miterlimit="10" x1="155.186" y1="60.571" x2="155.186" y2="80.121"/>
		</g>
		<g>
			<path fill="none" stroke="#CB432D" stroke-width="2" stroke-miterlimit="10" d="M152.896,81.879
				c0,8.482-34.003,15.359-75.948,15.359S1,90.361,1,81.879c0-3.809,6.856-7.293,18.208-9.978"/>
			<path fill="none" stroke="#CB432D" stroke-width="2" stroke-miterlimit="10" d="M1,81.879v21.188
				c0,0,12.956,15.528,75.948,15.528c62.991,0,75.948-15.979,75.948-15.979V81.169"/>
			<line fill="none" stroke="#CB432D" stroke-width="2" stroke-miterlimit="10" x1="16.919" y1="91.288" x2="16.919" y2="111.359"/>
			<line fill="none" stroke="#CB432D" stroke-width="2" stroke-miterlimit="10" x1="31.893" y1="94.244" x2="31.893" y2="115.08"/>
			<line fill="none" stroke="#CB432D" stroke-width="2" stroke-miterlimit="10" x1="46.072" y1="95.915" x2="46.072" y2="117.11"/>
			<line fill="none" stroke="#CB432D" stroke-width="2" stroke-miterlimit="10" x1="60.5" y1="97.238" x2="60.5" y2="118.21"/>
			<line fill="none" stroke="#CB432D" stroke-width="2" stroke-miterlimit="10" x1="76.948" y1="97.238" x2="76.948" y2="118.595"/>
			<line fill="none" stroke="#CB432D" stroke-width="2" stroke-miterlimit="10" x1="95.156" y1="97.238" x2="95.156" y2="118.104"/>
			
				<line fill="none" stroke="#CB432D" stroke-width="2" stroke-miterlimit="10" x1="108.659" y1="95.915" x2="108.659" y2="116.975"/>
			
				<line fill="none" stroke="#CB432D" stroke-width="2" stroke-miterlimit="10" x1="123.287" y1="94.244" x2="123.287" y2="114.728"/>
			
				<line fill="none" stroke="#CB432D" stroke-width="2" stroke-miterlimit="10" x1="136.978" y1="91.288" x2="136.978" y2="110.838"/>
		</g>
		<g>
			<path fill="none" stroke="#CB432D" stroke-width="2" stroke-miterlimit="10" d="M148.794,105.698
				c8.19,2.451,12.972,5.405,12.972,8.586c0,8.483-34.004,15.359-75.949,15.359c-41.944,0-75.948-6.876-75.948-15.359
				c0-1.508,1.074-2.964,3.078-4.342"/>
			<path fill="none" stroke="#CB432D" stroke-width="2" stroke-miterlimit="10" d="M9.868,114.284v21.188
				c0,0,12.957,15.527,75.948,15.527s75.949-15.978,75.949-15.978v-20.738"/>
			
				<line fill="none" stroke="#CB432D" stroke-width="2" stroke-miterlimit="10" x1="25.787" y1="123.694" x2="25.787" y2="143.766"/>
			<line fill="none" stroke="#CB432D" stroke-width="2" stroke-miterlimit="10" x1="40.761" y1="126.65" x2="40.761" y2="147.486"/>
			
				<line fill="none" stroke="#CB432D" stroke-width="2" stroke-miterlimit="10" x1="54.941" y1="128.321" x2="54.941" y2="149.517"/>
			
				<line fill="none" stroke="#CB432D" stroke-width="2" stroke-miterlimit="10" x1="69.368" y1="129.644" x2="69.368" y2="150.616"/>
			<line fill="none" stroke="#CB432D" stroke-width="2" stroke-miterlimit="10" x1="85.816" y1="129.644" x2="85.816" y2="151"/>
			
				<line fill="none" stroke="#CB432D" stroke-width="2" stroke-miterlimit="10" x1="104.024" y1="129.644" x2="104.024" y2="150.51"/>
			
				<line fill="none" stroke="#CB432D" stroke-width="2" stroke-miterlimit="10" x1="117.527" y1="128.321" x2="117.527" y2="149.381"/>
			
				<line fill="none" stroke="#CB432D" stroke-width="2" stroke-miterlimit="10" x1="132.155" y1="126.65" x2="132.155" y2="147.134"/>
			
				<line fill="none" stroke="#CB432D" stroke-width="2" stroke-miterlimit="10" x1="145.846" y1="123.694" x2="145.846" y2="143.244"/>
		</g>
	</g>
</g>
<g id="Calque_9" display="none">
</g>
<g id="Calque_1" display="none">
</g>
<g id="home_bleu" display="none">
	<g id="Nouveau_symbole_1_1_" display="inline">
	</g>
</g>
<g id="home_rouge">
	<g id="Nouveau_symbole_1">
	</g>
</g>
<g id="home_classique" display="none">
	<g id="Nouveau_symbole_2" display="inline">
	</g>
</g>
<g id="home3" display="none">
</g>
</svg>
