<?xml version="1.0" encoding="utf-8"?>
<!-- Generator: Adobe Illustrator 16.0.0, SVG Export Plug-In . SVG Version: 6.00 Build 0)  -->
<!DOCTYPE svg PUBLIC "-//W3C//DTD SVG 1.1//EN" "http://www.w3.org/Graphics/SVG/1.1/DTD/svg11.dtd">
<svg version="1.1" xmlns="http://www.w3.org/2000/svg" xmlns:xlink="http://www.w3.org/1999/xlink" x="0px" y="0px"
	 width="187.575px" height="149.646px" viewBox="0 0 187.575 149.646" enable-background="new 0 0 187.575 149.646"
	 xml:space="preserve">
<g id="Calque_1_-_copie">
	<g id="Nouveau_symbole_1_">
	</g>
	<g id="Nouveau_symbole">
	</g>
	<g>
		<g>
			<path fill="#CB432D" d="M53.736,64.765V52.686h4.557c0.801,0,1.414,0.038,1.837,0.115c0.593,0.099,1.091,0.287,1.491,0.564
				c0.401,0.277,0.725,0.666,0.969,1.166s0.366,1.049,0.366,1.647c0,1.027-0.327,1.896-0.98,2.608
				c-0.653,0.711-1.835,1.066-3.543,1.066h-3.099v4.911H53.736z M55.334,58.429h3.123c1.033,0,1.766-0.192,2.2-0.577
				s0.651-0.926,0.651-1.623c0-0.506-0.128-0.938-0.383-1.298c-0.256-0.359-0.593-0.598-1.01-0.713
				c-0.27-0.071-0.767-0.107-1.492-0.107h-3.09V58.429z"/>
			<path fill="#CB432D" d="M72.918,52.686h1.599v6.979c0,1.214-0.138,2.179-0.412,2.893s-0.771,1.295-1.487,1.742
				c-0.717,0.448-1.658,0.672-2.822,0.672c-1.131,0-2.057-0.195-2.777-0.585c-0.719-0.39-1.232-0.954-1.54-1.693
				c-0.308-0.738-0.462-1.748-0.462-3.028v-6.979h1.6v6.971c0,1.049,0.097,1.822,0.292,2.319c0.194,0.497,0.53,0.88,1.005,1.149
				s1.057,0.403,1.742,0.403c1.176,0,2.014-0.266,2.514-0.799s0.75-1.558,0.75-3.073V52.686z"/>
			<path fill="#CB432D" d="M77.111,64.765V52.686h4.532c0.923,0,1.663,0.122,2.221,0.366c0.558,0.245,0.994,0.621,1.31,1.129
				c0.316,0.508,0.475,1.04,0.475,1.595c0,0.517-0.141,1.002-0.42,1.458c-0.281,0.456-0.703,0.824-1.27,1.104
				c0.73,0.214,1.293,0.579,1.686,1.096s0.589,1.126,0.589,1.829c0,0.565-0.12,1.092-0.358,1.578
				c-0.239,0.486-0.535,0.861-0.886,1.125c-0.352,0.264-0.792,0.463-1.323,0.597c-0.529,0.135-1.18,0.202-1.948,0.202H77.111z
				 M78.711,57.761h2.611c0.709,0,1.217-0.047,1.524-0.14c0.407-0.121,0.713-0.321,0.919-0.602s0.309-0.632,0.309-1.055
				c0-0.401-0.096-0.754-0.288-1.059c-0.192-0.306-0.467-0.514-0.824-0.627c-0.356-0.112-0.97-0.169-1.837-0.169h-2.414V57.761z
				 M78.711,63.339h3.007c0.517,0,0.879-0.019,1.088-0.058c0.368-0.065,0.676-0.176,0.923-0.329c0.247-0.154,0.45-0.378,0.609-0.672
				c0.16-0.294,0.239-0.633,0.239-1.018c0-0.45-0.115-0.842-0.347-1.174c-0.23-0.333-0.551-0.566-0.959-0.7
				c-0.41-0.135-0.999-0.202-1.768-0.202h-2.793V63.339z"/>
			<path fill="#CB432D" d="M88.367,64.765V52.686h1.599v10.653h5.949v1.426H88.367z"/>
			<path fill="#CB432D" d="M98.09,64.765V52.686h1.599v12.079H98.09z"/>
			<path fill="#CB432D" d="M102.539,64.765V52.686h8.734v1.425h-7.136v3.7h6.683v1.417h-6.683v4.111h7.416v1.426H102.539z"/>
			<path fill="#CB432D" d="M113.787,64.765V52.686h5.355c1.076,0,1.895,0.108,2.455,0.325s1.008,0.601,1.344,1.149
				c0.334,0.55,0.502,1.156,0.502,1.821c0,0.856-0.277,1.579-0.832,2.167s-1.412,0.961-2.57,1.12
				c0.422,0.203,0.744,0.404,0.963,0.602c0.467,0.429,0.91,0.964,1.327,1.606l2.101,3.288h-2.01l-1.599-2.513
				c-0.467-0.726-0.852-1.28-1.153-1.665c-0.303-0.384-0.572-0.653-0.813-0.808c-0.238-0.153-0.481-0.261-0.729-0.321
				c-0.182-0.038-0.479-0.058-0.891-0.058h-1.854v5.364H113.787z M115.385,58.017h3.436c0.73,0,1.303-0.076,1.715-0.227
				c0.412-0.151,0.725-0.393,0.939-0.726c0.214-0.332,0.32-0.693,0.32-1.083c0-0.571-0.207-1.041-0.621-1.409
				c-0.415-0.368-1.07-0.552-1.965-0.552h-3.824V58.017z"/>
		</g>
		<g>
			<path fill="none" stroke="#CB432D" stroke-width="2" stroke-miterlimit="10" d="M135.13,59.687
				c0.218-0.217,0.469-0.284,0.756-0.169l9.319,3.747V46.323h-110v26h104.049l-4.295-11.287
				C134.845,60.751,134.912,59.905,135.13,59.687z"/>
			<path fill="none" stroke="#CB432D" stroke-width="2" stroke-miterlimit="10" d="M139.254,71.289l1.527,3.83
				c0.109,0.275,0.366,0.463,0.66,0.484c0.295,0.021,0.576-0.129,0.725-0.384l1.891-3.275l4.588,4.591
				c0.145,0.145,0.341,0.226,0.547,0.226c0.203,0,0.4-0.081,0.545-0.226l2.238-2.239c0.302-0.303,0.302-0.79,0-1.091l-4.589-4.589
				l3.274-1.891c0.254-0.149,0.404-0.429,0.383-0.724c-0.021-0.297-0.209-0.553-0.483-0.661l-5.204-2.076"/>
		</g>
		<path fill-rule="evenodd" clip-rule="evenodd" fill="none" stroke="#CB432D" stroke-width="2" stroke-miterlimit="10" d="
			M179.32,1H9.075C5.034,1,1,4.217,1,8.253v108.13c0,3.221,4.034,4.837,8.075,4.837H179.32c4.031,0,7.255-1.616,7.255-4.837V8.253
			C186.575,4.217,183.352,1,179.32,1L179.32,1z"/>
		<polygon fill-rule="evenodd" clip-rule="evenodd" fill="none" stroke="#CB432D" stroke-width="2" stroke-miterlimit="10" points="
			175.29,101.844 175.29,101.844 13.109,101.844 13.109,13.085 175.29,13.085 		"/>
		<path fill-rule="evenodd" clip-rule="evenodd" fill="none" stroke="#CB432D" stroke-width="2" stroke-miterlimit="10" d="
			M67.157,148.646c-2.415,0,0-2.414,3.24-4.831c3.228-2.423,3.228-6.445,3.228-6.445l1.606-8.894h37.933l1.612,8.894
			c0,0,0,4.84,3.222,6.445l0,0c3.227,2.417,5.646,4.831,3.227,4.831H67.157z"/>
		<path fill-rule="evenodd" clip-rule="evenodd" fill="#CB432D" d="M97.506,111.945c0,2.025-1.643,3.667-3.671,3.667
			s-3.669-1.642-3.669-3.667c0-2.028,1.641-3.672,3.669-3.672S97.506,109.917,97.506,111.945z"/>
	</g>
</g>
<g id="Calque_9" display="none">
</g>
<g id="Calque_1" display="none">
	<g display="inline">
		<g>
			<g>
				<rect x="66.03" y="28.263" fill="none" width="211.683" height="116.584"/>
				<text transform="matrix(1 0 0 1 113.4541 39.6631)"><tspan x="0" y="0" fill="#222223" font-family="'OpenSans'" font-size="15">Laisser la place </tspan><tspan x="-25.404" y="23" fill="#222223" font-family="'OpenSans'" font-size="15">àl’utilisateur avec une </tspan><tspan x="-22.688" y="46" fill="#222223" font-family="'OpenSans'" font-size="15">interface minimaliste</tspan></text>
			</g>
			<g>
				<rect x="66.646" y="-11.651" fill="none" width="211.672" height="20.998"/>
				
					<text transform="matrix(1 0 0 1 76.2393 1.0986)" fill="#CB432D" font-family="'Roboto-Bold'" font-size="17" letter-spacing="1">Intégration du player</text>
			</g>
		</g>
	</g>
</g>
<g id="home_bleu" display="none">
	<g id="Nouveau_symbole_1_1_" display="inline">
	</g>
</g>
<g id="home_rouge">
	<g id="Nouveau_symbole_1">
	</g>
</g>
<g id="home_classique" display="none">
	<g id="Nouveau_symbole_2" display="inline">
	</g>
</g>
<g id="home3" display="none">
</g>
</svg>
