<?xml version="1.0" encoding="utf-8"?>
<!-- Generator: Adobe Illustrator 16.0.0, SVG Export Plug-In . SVG Version: 6.00 Build 0)  -->
<!DOCTYPE svg PUBLIC "-//W3C//DTD SVG 1.1//EN" "http://www.w3.org/Graphics/SVG/1.1/DTD/svg11.dtd">
<svg version="1.1" xmlns="http://www.w3.org/2000/svg" xmlns:xlink="http://www.w3.org/1999/xlink" x="0px" y="0px"
	 width="102.552px" height="82px" viewBox="0 0 102.552 82" enable-background="new 0 0 102.552 82" xml:space="preserve">
<g id="Calque_1_-_copie">
	<g id="Nouveau_symbole_1_">
	</g>
	<g id="Nouveau_symbole">
	</g>
	<g>
		<g>
			<path fill="#CB432D" d="M29.574,35.55v-6.545h2.47c0.434,0,0.766,0.021,0.995,0.063c0.321,0.054,0.591,0.155,0.808,0.306
				c0.218,0.15,0.393,0.361,0.525,0.632c0.132,0.271,0.198,0.568,0.198,0.894c0,0.557-0.178,1.027-0.531,1.412
				c-0.354,0.386-0.994,0.578-1.92,0.578H30.44v2.661H29.574z M30.44,32.117h1.692c0.56,0,0.956-0.104,1.191-0.313
				c0.236-0.209,0.354-0.502,0.354-0.88c0-0.274-0.069-0.509-0.207-0.703c-0.139-0.194-0.322-0.324-0.548-0.386
				c-0.146-0.039-0.415-0.059-0.809-0.059H30.44V32.117z"/>
			<path fill="#CB432D" d="M39.968,29.005h0.866v3.781c0,0.658-0.074,1.181-0.223,1.567c-0.149,0.387-0.418,0.701-0.807,0.944
				c-0.388,0.243-0.898,0.364-1.529,0.364c-0.612,0-1.114-0.106-1.504-0.317s-0.668-0.517-0.835-0.917s-0.25-0.947-0.25-1.642
				v-3.781h0.866v3.777c0,0.568,0.053,0.987,0.158,1.257s0.287,0.477,0.545,0.623c0.257,0.146,0.572,0.218,0.943,0.218
				c0.638,0,1.092-0.144,1.362-0.433s0.406-0.844,0.406-1.665V29.005z"/>
			<path fill="#CB432D" d="M42.24,35.55v-6.545h2.455c0.5,0,0.901,0.066,1.204,0.198c0.302,0.133,0.538,0.337,0.709,0.612
				c0.172,0.274,0.257,0.563,0.257,0.864c0,0.279-0.076,0.543-0.227,0.789c-0.152,0.248-0.381,0.447-0.688,0.6
				c0.396,0.115,0.7,0.313,0.913,0.593c0.213,0.28,0.319,0.61,0.319,0.991c0,0.307-0.065,0.592-0.194,0.855s-0.29,0.467-0.479,0.609
				c-0.19,0.143-0.43,0.251-0.717,0.323c-0.287,0.073-0.64,0.109-1.056,0.109H42.24z M43.106,31.755h1.415
				c0.385,0,0.659-0.025,0.826-0.075c0.221-0.066,0.387-0.174,0.498-0.326s0.167-0.343,0.167-0.571c0-0.218-0.052-0.409-0.156-0.574
				s-0.253-0.278-0.446-0.339c-0.193-0.062-0.525-0.092-0.995-0.092h-1.309V31.755z M43.106,34.777h1.63
				c0.279,0,0.476-0.01,0.589-0.031c0.2-0.035,0.366-0.096,0.5-0.178c0.134-0.084,0.244-0.205,0.33-0.364
				c0.087-0.159,0.13-0.343,0.13-0.552c0-0.244-0.063-0.456-0.188-0.636c-0.125-0.181-0.299-0.308-0.52-0.38
				c-0.223-0.072-0.541-0.109-0.958-0.109h-1.514V34.777z"/>
			<path fill="#CB432D" d="M48.339,35.55v-6.545h0.866v5.772h3.224v0.772H48.339z"/>
			<path fill="#CB432D" d="M53.607,35.55v-6.545h0.865v6.545H53.607z"/>
			<path fill="#CB432D" d="M56.018,35.55v-6.545h4.732v0.772h-3.866v2.005h3.621v0.768h-3.621v2.228h4.019v0.772H56.018z"/>
			<path fill="#CB432D" d="M62.112,35.55v-6.545h2.901c0.584,0,1.027,0.06,1.33,0.177c0.305,0.117,0.547,0.325,0.729,0.623
				c0.182,0.297,0.272,0.626,0.272,0.986c0,0.464-0.15,0.855-0.451,1.174s-0.765,0.521-1.393,0.607
				c0.229,0.109,0.403,0.219,0.521,0.326c0.253,0.232,0.493,0.521,0.72,0.87l1.138,1.781h-1.089l-0.866-1.361
				c-0.253-0.394-0.462-0.693-0.625-0.902c-0.164-0.208-0.31-0.354-0.44-0.438c-0.129-0.083-0.261-0.142-0.395-0.174
				c-0.099-0.021-0.26-0.031-0.482-0.031h-1.004v2.906H62.112z M62.979,31.894h1.861c0.396,0,0.705-0.041,0.929-0.122
				c0.224-0.082,0.393-0.213,0.509-0.394s0.174-0.376,0.174-0.587c0-0.31-0.112-0.564-0.336-0.764
				c-0.226-0.199-0.58-0.299-1.065-0.299h-2.071V31.894z"/>
		</g>
		<g>
			<path fill="none" stroke="#CB432D" stroke-width="2" stroke-miterlimit="10" d="M73.677,32.799
				c0.118-0.118,0.032-0.154,0.188-0.092l4.828,2.03V25.5h-59v14h56.218l-2.327-6.043C73.521,33.303,73.559,32.917,73.677,32.799z"
				/>
			<path fill="none" stroke="#CB432D" stroke-width="2" stroke-miterlimit="10" d="M75.911,39.085l0.827,2.075
				c0.06,0.149,0.199,0.251,0.358,0.263c0.159,0.011,0.312-0.069,0.393-0.208l1.024-1.774l2.485,2.487
				c0.079,0.078,0.185,0.122,0.297,0.122c0.109,0,0.217-0.044,0.295-0.122l1.213-1.213c0.163-0.164,0.163-0.429,0-0.592
				l-2.486-2.486l1.774-1.024c0.137-0.081,0.219-0.232,0.207-0.392c-0.012-0.161-0.113-0.3-0.262-0.358l-2.82-1.125"/>
		</g>
		<path fill-rule="evenodd" clip-rule="evenodd" fill="none" stroke="#CB432D" stroke-width="2" stroke-miterlimit="10" d="M97.62,1
			H5.376C3.187,1,1,2.743,1,4.93v58.589c0,1.745,2.187,2.621,4.376,2.621H97.62c2.185,0,3.932-0.876,3.932-2.621V4.93
			C101.552,2.743,99.805,1,97.62,1L97.62,1z"/>
		<polygon fill-rule="evenodd" clip-rule="evenodd" fill="none" stroke="#CB432D" stroke-width="2" stroke-miterlimit="10" points="
			95.437,55.641 95.437,55.641 7.562,55.641 7.562,7.548 95.437,7.548 		"/>
		<path fill-rule="evenodd" clip-rule="evenodd" fill="none" stroke="#CB432D" stroke-width="2" stroke-miterlimit="10" d="
			M36.847,81c-1.309,0,0-1.308,1.756-2.617c1.749-1.313,1.749-3.492,1.749-3.492l0.87-4.819h20.553l0.874,4.819
			c0,0,0,2.622,1.745,3.492l0,0c1.749,1.31,3.06,2.617,1.749,2.617H36.847z"/>
		<circle fill-rule="evenodd" clip-rule="evenodd" fill="#CB432D" cx="51.302" cy="61.114" r="1.989"/>
	</g>
</g>
<g id="Calque_9" display="none">
</g>
<g id="Calque_1" display="none">
	<g display="inline">
		<g>
			<g>
				<rect x="23.519" y="-5.561" fill="none" width="211.683" height="116.584"/>
				<text transform="matrix(1 0 0 1 70.9424 5.8398)"><tspan x="0" y="0" fill="#222223" font-family="'OpenSans'" font-size="15">Laisser la place </tspan><tspan x="-25.404" y="23" fill="#222223" font-family="'OpenSans'" font-size="15">àl’utilisateur avec une </tspan><tspan x="-22.688" y="46" fill="#222223" font-family="'OpenSans'" font-size="15">interface minimaliste</tspan></text>
			</g>
		</g>
	</g>
</g>
<g id="home_bleu" display="none">
	<g id="Nouveau_symbole_1_1_" display="inline">
	</g>
</g>
<g id="home_rouge">
	<g id="Nouveau_symbole_1">
	</g>
</g>
<g id="home_classique" display="none">
	<g id="Nouveau_symbole_2" display="inline">
	</g>
</g>
<g id="home3" display="none">
</g>
</svg>
